<?xml version="1.0" encoding="utf-8"?>
<!DOCTYPE svg PUBLIC "-//W3C//DTD SVG 1.1//EN" "http://www.w3.org/Graphics/SVG/1.1/DTD/svg11.dtd">
<svg xmlns="http://www.w3.org/2000/svg" xmlns:xlink="http://www.w3.org/1999/xlink" version="1.1" viewBox="0 0 51.749733 51.749733" xml:space="preserve">
<g transform="translate(-59.08236,4.0242933)">
<path d="m 94.881147,30.177305 c 1.95658,-2.331524 3.030265,-5.283065 3.030265,-8.326684 0,-7.153354 -5.800794,-12.9541228 -12.954124,-12.9541228 -7.153354,0 -12.954124,5.8007938 -12.954124,12.9541228 0,3.043607 1.073694,5.99516 3.030266,8.326684 l 0.607566,0.724098 -2.555253,2.144495 0.714757,0.851527 2.555253,-2.144495 -0.714757,-0.851527 -1.448192,1.215137 -0.607565,-0.724098 c -1.899421,-2.263473 -3.07275,-5.036888 -3.38698,-7.952396 l -1.452423,0.101629 -0.07761,-1.109275 1.452424,-0.101629 c -0.0051,-0.159676 -0.0077,-0.319795 -0.0077,-0.480137 0,-3.805513 1.433515,-7.276116 3.789053,-9.903192 l -1.048826,-1.012758 0.772356,-0.799933 1.049007,1.012981 c 2.543464,-2.4440493 5.955343,-3.9909883 9.726836,-4.1299773 l 0,-1.4570934 1.111945,0 0,1.4570934 c 3.771491,0.1389927 7.183383,1.685928 9.726835,4.1299773 l 1.049008,-1.012981 0.772356,0.799711 -1.048786,1.01298 c 2.355536,2.627076 3.789056,6.097679 3.789056,9.903192 0,0.160342 -0.003,0.320461 -0.008,0.480137 l 1.45242,0.101408 -0.0776,1.109275 -1.45242,-0.101408 c -0.31424,2.91552 -1.48756,5.688923 -3.386983,7.952396 l -0.607565,0.724098 1.107274,0.928917 -0.714536,0.851972 -2.555471,-2.144046 0.714536,-0.851972 0.607565,-0.724098 z" />
<path d="m 80.656231,24.434121 1.538703,1.604985 1.930336,-2.130487 c 0.300892,0.121646 0.633363,0.179244 0.978733,0.156339 1.222691,-0.08095 2.148715,-1.138408 2.067554,-2.361105 -0.02112,-0.318906 -0.108973,-0.617573 -0.248408,-0.883328 l 5.899747,-6.51176 -6.754166,5.621102 c -0.368277,-0.213494 -0.801935,-0.323798 -1.258276,-0.293553 -1.222692,0.08095 -2.148716,1.138408 -2.067554,2.361105 0.01379,0.209045 0.05627,0.40964 0.123202,0.59778 l -2.209877,1.838937 z" />
<path d="M 50,6.875 C 26.184488,6.875 6.875,26.184465 6.875,50 6.875,73.81551 26.184464,93.125 50,93.125 73.81551,93.125 93.125,73.815534 93.125,50 93.125,26.184489 73.815534,6.875 50,6.875 Z M 50,13.5 C 70.15151,13.5 86.5,29.848442 86.5,50 86.5,70.15151 70.151558,86.5 50,86.5 29.84849,86.5 13.5,70.151558 13.5,50 13.5,29.848492 29.84844,13.5 50,13.5 Z" transform="matrix(0.50274728,0,0,0.50274728,59.819862,-3.2867908)" />
</g>
</svg>