<?xml version="1.0" encoding="UTF-8" standalone="no"?>
<svg
   xmlns:dc="http://purl.org/dc/elements/1.1/"
   xmlns:cc="http://creativecommons.org/ns#"
   xmlns:rdf="http://www.w3.org/1999/02/22-rdf-syntax-ns#"
   xmlns:svg="http://www.w3.org/2000/svg"
   xmlns="http://www.w3.org/2000/svg"
   xmlns:sodipodi="http://sodipodi.sourceforge.net/DTD/sodipodi-0.dtd"
   xmlns:inkscape="http://www.inkscape.org/namespaces/inkscape"
   width="2500"
   height="2500"
   viewBox="0 0 1372.7501 1372.684"
   version="1.1"
   id="svg46"
   sodipodi:docname="icon.svg"
   inkscape:version="0.92.2 5c3e80d, 2017-08-06">
  <metadata
     id="metadata52">
    <rdf:RDF>
      <cc:Work
         rdf:about="">
        <dc:format>image/svg+xml</dc:format>
        <dc:type
           rdf:resource="http://purl.org/dc/dcmitype/StillImage" />
        <dc:title></dc:title>
      </cc:Work>
    </rdf:RDF>
  </metadata>
  <defs
     id="defs50" />
  <sodipodi:namedview
     pagecolor="#ffffff"
     bordercolor="#666666"
     borderopacity="1"
     objecttolerance="10"
     gridtolerance="10"
     guidetolerance="10"
     inkscape:pageopacity="0"
     inkscape:pageshadow="2"
     inkscape:window-width="1600"
     inkscape:window-height="835"
     id="namedview48"
     showgrid="false"
     showguides="false"
     inkscape:zoom="0.1888"
     inkscape:cx="377.7899"
     inkscape:cy="1238.2997"
     inkscape:window-x="0"
     inkscape:window-y="0"
     inkscape:window-maximized="1"
     inkscape:current-layer="svg46" />
  <linearGradient
     id="a"
     gradientUnits="userSpaceOnUse"
     x1="-16.299999"
     y1="16.070999"
     x2="1354.901"
     y2="16.070999"
     gradientTransform="matrix(1,0,0,-1,16.8,702.696)">
    <stop
       offset=".117"
       stop-color="#fff"
       stop-opacity="0"
       id="stop4" />
    <stop
       offset=".252"
       stop-color="#c0d1d3"
       stop-opacity=".153"
       id="stop6" />
    <stop
       offset=".387"
       stop-color="#91b3b7"
       stop-opacity=".306"
       id="stop8" />
    <stop
       offset=".52"
       stop-color="#6d9fa3"
       stop-opacity=".457"
       id="stop10" />
    <stop
       offset=".65"
       stop-color="#4d9195"
       stop-opacity=".604"
       id="stop12" />
    <stop
       offset=".776"
       stop-color="#30888b"
       stop-opacity=".746"
       id="stop14" />
    <stop
       offset=".895"
       stop-color="#148386"
       stop-opacity=".881"
       id="stop16" />
    <stop
       offset="1"
       stop-color="#008184"
       id="stop18" />
  </linearGradient>
  <linearGradient
     id="b"
     gradientUnits="userSpaceOnUse"
     x1="-16.799999"
     y1="16.070999"
     x2="1355.401"
     y2="16.070999"
     gradientTransform="matrix(1,0,0,-1,16.8,702.696)">
    <stop
       offset="0"
       stop-color="#fff"
       stop-opacity="0"
       id="stop21" />
    <stop
       offset=".153"
       stop-color="#c0d1d3"
       stop-opacity=".153"
       id="stop23" />
    <stop
       offset=".306"
       stop-color="#91b3b7"
       stop-opacity=".306"
       id="stop25" />
    <stop
       offset=".457"
       stop-color="#6d9fa3"
       stop-opacity=".457"
       id="stop27" />
    <stop
       offset=".604"
       stop-color="#4d9195"
       stop-opacity=".604"
       id="stop29" />
    <stop
       offset=".746"
       stop-color="#30888b"
       stop-opacity=".746"
       id="stop31" />
    <stop
       offset=".881"
       stop-color="#148386"
       stop-opacity=".881"
       id="stop33" />
    <stop
       offset="1"
       stop-color="#008184"
       id="stop35" />
  </linearGradient>
  <path
     style="opacity:1;fill:#338484;fill-opacity:1;fill-rule:nonzero;stroke:none;stroke-width:10.03020859;stroke-miterlimit:10;stroke-dasharray:none;stroke-dashoffset:0;stroke-opacity:1"
     d="M 773.42578 961.70898 C 768.17241 961.70898 762.9505 961.83449 757.76172 962.08398 C 752.57294 962.33348 747.41659 962.7063 742.29883 963.19922 C 737.18107 963.69214 732.10087 964.30489 727.06055 965.03516 C 722.02022 965.76542 717.02091 966.61269 712.06445 967.57422 C 707.10799 968.53575 702.19431 969.61211 697.32812 970.79883 C 692.46195 971.98555 687.64251 973.28362 682.87305 974.68945 C 678.10359 976.09528 673.38507 977.6077 668.71875 979.22656 C 664.05243 980.84543 659.43762 982.57066 654.88086 984.39648 C 650.3241 986.22231 645.82554 988.14908 641.38477 990.17578 C 636.94399 992.20249 632.56251 994.32927 628.24414 996.55078 C 623.92578 998.77229 619.67 1001.0898 615.48047 1003.5 C 611.29094 1005.9102 607.16755 1008.413 603.11328 1011.0059 C 599.05901 1013.5987 595.07275 1016.2813 591.16016 1019.0508 C 587.24757 1021.8202 583.40901 1024.6772 579.64453 1027.6172 C 575.88005 1030.5571 572.19003 1033.5792 568.58008 1036.6836 C 564.97013 1039.788 561.43923 1042.9736 557.99023 1046.2363 C 554.54124 1049.499 551.17419 1052.8389 547.89258 1056.2539 C 544.61096 1059.6689 541.41445 1063.1595 538.30664 1066.7207 C 535.19883 1070.2819 532.17954 1073.914 529.25195 1077.6152 C 526.32437 1081.3165 523.48898 1085.0866 520.74805 1088.9219 C 518.00712 1092.7572 515.36035 1096.6578 512.8125 1100.6211 C 510.26465 1104.5844 507.81515 1108.6102 505.4668 1112.6953 C 503.11845 1116.7804 500.87289 1120.9241 498.73047 1125.125 C 496.58804 1129.3259 494.54922 1133.5839 492.61914 1137.8945 C 490.68906 1142.2052 488.86755 1146.5701 487.15625 1150.9844 C 485.44495 1155.3987 483.84352 1159.8631 482.35742 1164.375 C 480.87132 1168.8869 479.50057 1173.4455 478.24609 1178.0488 C 476.99161 1182.6522 475.85432 1187.2995 474.83789 1191.9883 C 473.82146 1196.6771 472.9243 1201.4077 472.15234 1206.1758 C 471.38038 1210.9439 470.73396 1215.7504 470.21289 1220.5918 C 469.69183 1225.4332 469.29695 1230.3082 469.0332 1235.2168 C 468.76946 1240.1254 468.63672 1245.0674 468.63672 1250.0371 C 468.63672 1255.0058 468.76957 1259.9439 469.0332 1264.8516 C 469.29684 1269.7592 469.6901 1274.636 470.21094 1279.4766 C 470.73178 1284.3172 471.38072 1289.1232 472.15234 1293.8906 C 472.92396 1298.6581 473.81801 1303.386 474.83398 1308.0742 C 475.84996 1312.7625 476.98634 1317.4108 478.24023 1322.0137 C 479.49413 1326.6166 480.86617 1331.174 482.35156 1335.6855 C 483.83696 1340.1971 485.43601 1344.6621 487.14648 1349.0762 C 488.85695 1353.4902 490.67831 1357.8536 492.60742 1362.1641 C 494.53654 1366.4745 496.57351 1370.7328 498.71484 1374.9336 C 500.85618 1379.1344 503.10209 1383.2782 505.44922 1387.3633 C 507.79635 1391.4484 510.24452 1395.4742 512.79102 1399.4375 C 515.33751 1403.4008 517.98323 1407.3013 520.72266 1411.1367 C 523.46209 1414.9721 526.29671 1418.7419 529.22266 1422.4434 C 532.1486 1426.1448 535.16546 1429.7785 538.27148 1433.3398 C 541.37751 1436.9012 544.57188 1440.3914 547.85156 1443.8066 C 551.13125 1447.2219 554.49644 1450.5612 557.94336 1453.8242 C 561.39028 1457.0872 564.91962 1460.2742 568.52734 1463.3789 C 572.13507 1466.4836 575.81993 1469.507 579.58203 1472.4473 C 583.34413 1475.3876 587.1837 1478.2439 591.09375 1481.0137 C 595.0038 1483.7835 598.98553 1486.4673 603.03711 1489.0605 C 607.08869 1491.6538 611.20981 1494.1558 615.39648 1496.5664 C 619.58316 1498.977 623.83504 1501.2957 628.15039 1503.5176 C 632.46574 1505.7395 636.84366 1507.8655 641.28125 1509.8926 C 645.71884 1511.9196 650.21612 1513.8477 654.76953 1515.6738 C 659.32294 1517.5 663.9329 1519.2245 668.5957 1520.8438 C 673.2585 1522.4628 677.97447 1523.9767 682.74023 1525.3828 C 687.506 1526.7889 692.32129 1528.0865 697.18359 1529.2734 C 702.0459 1530.4604 706.95579 1531.5363 711.9082 1532.498 C 716.86062 1533.4598 721.85648 1534.3086 726.89258 1535.0391 C 731.92867 1535.7695 737.00383 1536.382 742.11719 1536.875 C 747.23054 1537.368 752.38222 1537.7407 757.56641 1537.9902 C 762.75059 1538.2398 767.96821 1538.3672 773.2168 1538.3672 C 781.27726 1538.3672 789.42559 1538.0531 797.60352 1537.459 C 805.78144 1536.8648 813.98913 1535.9889 822.16797 1534.8652 C 828.00872 1534.0288 833.7777 1533.0398 839.47656 1531.9043 C 845.17543 1530.7688 850.80256 1529.4867 856.35938 1528.0684 C 861.91618 1526.65 867.40184 1525.095 872.81641 1523.4102 C 878.23097 1521.7254 883.57551 1519.9115 888.84766 1517.9766 C 894.1198 1516.0416 899.31967 1513.9852 904.44922 1511.8164 C 909.57877 1509.6477 914.63823 1507.3667 919.625 1504.9805 C 924.61177 1502.5942 929.52728 1500.103 934.37109 1497.5156 C 939.21491 1494.9282 943.98682 1492.2449 948.6875 1489.4727 C 953.38818 1486.7004 958.01685 1483.8392 962.57422 1480.8984 C 967.13159 1477.9577 971.61737 1474.9367 976.03125 1471.8438 C 980.44513 1468.7507 984.78643 1465.5862 989.05664 1462.3574 C 993.32685 1459.1287 997.52602 1455.8366 1001.6523 1452.4883 C 1005.7787 1449.14 1009.8341 1445.7366 1013.8164 1442.2852 C 1017.7987 1438.8337 1021.7087 1435.3333 1025.5469 1431.7949 C 1033.2231 1424.7182 1040.6106 1417.4844 1047.709 1410.1582 C 1054.8074 1402.832 1061.6157 1395.4139 1068.1348 1387.9688 C 1074.6538 1380.5235 1080.884 1373.0526 1086.8223 1365.6191 C 1092.7606 1358.1857 1098.4075 1350.7911 1103.7637 1343.5 C 1109.1198 1336.2089 1114.1845 1329.0201 1118.957 1322.002 C 1123.7296 1314.9838 1128.209 1308.1361 1132.3965 1301.5215 C 1136.584 1294.9069 1140.479 1288.5258 1144.0801 1282.4453 C 1147.6811 1276.3649 1150.9888 1270.5836 1154.002 1265.168 C 1157.0151 1259.7523 1159.7344 1254.7023 1162.1582 1250.082 C 1159.741 1245.4682 1157.0277 1240.4235 1154.0195 1235.0117 C 1151.0114 1229.5999 1147.7088 1223.821 1144.1113 1217.7422 C 1140.5139 1211.6634 1136.6207 1205.2828 1132.4355 1198.668 C 1128.2504 1192.0531 1123.7733 1185.2035 1119.002 1178.1836 C 1114.2306 1171.1637 1109.1664 1163.9737 1103.8105 1156.6797 C 1098.4547 1149.3857 1092.8061 1141.9878 1086.8672 1134.5508 C 1080.9283 1127.1137 1074.698 1119.6386 1068.1777 1112.1895 C 1061.6575 1104.7403 1054.8481 1097.3166 1047.748 1089.9863 C 1040.648 1082.6561 1033.2583 1075.4182 1025.5801 1068.3379 C 1021.7409 1064.7977 1017.8291 1061.2969 1013.8457 1057.8438 C 1009.8623 1054.3905 1005.8071 1050.9865 1001.6797 1047.6367 C 997.55223 1044.287 993.35334 1040.9917 989.08203 1037.7617 C 984.81072 1034.5318 980.46575 1031.3672 976.05078 1028.2734 C 971.63581 1025.1796 967.15023 1022.1581 962.5918 1019.2168 C 958.03336 1016.2755 953.40287 1013.413 948.70117 1010.6406 C 943.99947 1007.8682 939.22563 1005.1848 934.38086 1002.5977 C 929.53609 1000.0105 924.62045 997.52023 919.63281 995.13477 C 914.64517 992.7493 909.58539 990.46823 904.45508 988.30078 C 899.32477 986.13333 894.12435 984.07954 888.85156 982.14648 C 883.57878 980.21343 878.23537 978.40104 872.82031 976.71875 C 867.40525 975.03646 861.91846 973.48547 856.36133 972.07031 C 850.80419 970.65516 845.17558 969.37774 839.47656 968.24609 C 833.77755 967.11445 828.00866 966.12862 822.16797 965.29688 C 814.08474 964.07578 805.91284 963.17759 797.75586 962.58594 C 789.59888 961.99429 781.45619 961.70898 773.42578 961.70898 z M 1668.9355 1110.9863 L 1758.8066 1110.9863 L 1668.9355 1110.9863 z M 647.0918 1205.2266 L 925.04688 1205.2266 L 925.04688 1294.793 L 647.0918 1294.793 L 647.0918 1205.2266 z "
     id="path934"
     transform="matrix(0.54910004,0,0,0.54910004,0,-0.03305)" />
  <path
     style="opacity:1;fill:#338484;fill-opacity:1;fill-rule:nonzero;stroke:none;stroke-width:10.03020859;stroke-miterlimit:10;stroke-dasharray:none;stroke-dashoffset:0;stroke-opacity:1"
     d="M 1726.7891 961.66602 C 1718.765 961.66602 1710.6366 961.95271 1702.4883 962.5332 C 1694.3399 963.1137 1686.1725 963.98759 1678.0684 965.16406 C 1672.2268 965.99861 1666.4556 966.98712 1660.7559 968.12109 C 1655.0561 969.25507 1649.4268 970.53606 1643.8691 971.95312 C 1638.3115 973.37019 1632.8256 974.92361 1627.4102 976.60742 C 1621.9947 978.29123 1616.65 980.10484 1611.377 982.03906 C 1606.1039 983.97328 1600.9019 986.02898 1595.7715 988.19727 C 1590.6411 990.36556 1585.5814 992.64718 1580.5938 995.0332 C 1575.606 997.41922 1570.6904 999.90868 1565.8457 1002.4961 C 1561.001 1005.0835 1556.2289 1007.7686 1551.5273 1010.541 C 1546.8258 1013.3135 1542.1949 1016.1741 1537.6367 1019.1152 C 1533.0785 1022.0564 1528.5924 1025.0783 1524.1777 1028.1719 C 1519.763 1031.2654 1515.4194 1034.4306 1511.1484 1037.6602 C 1506.8774 1040.8897 1502.6798 1044.182 1498.5527 1047.5312 C 1494.4256 1050.8806 1490.3698 1054.2857 1486.3867 1057.7383 C 1482.4037 1061.1909 1478.4931 1064.6909 1474.6543 1068.2305 C 1466.9767 1075.3097 1459.5879 1082.5477 1452.4883 1089.877 C 1445.3887 1097.2062 1438.5786 1104.6277 1432.0586 1112.0762 C 1425.5385 1119.5247 1419.3082 1127.0005 1413.3691 1134.4375 C 1407.4301 1141.8745 1401.7824 1149.2715 1396.4258 1156.5664 C 1391.0691 1163.8613 1386.0032 1171.0542 1381.2305 1178.0762 C 1376.4577 1185.0982 1371.9765 1191.95 1367.7891 1198.5684 C 1363.6017 1205.1867 1359.708 1211.5702 1356.1074 1217.6543 C 1352.5068 1223.7384 1349.1998 1229.5224 1346.1875 1234.9414 C 1343.1752 1240.3604 1340.4578 1245.4158 1338.0352 1250.0391 C 1340.4576 1254.6527 1343.1753 1259.6968 1346.1875 1265.1074 C 1349.1997 1270.518 1352.5069 1276.2943 1356.1074 1282.3711 C 1359.7079 1288.4479 1363.6018 1294.8253 1367.7891 1301.4375 C 1371.9763 1308.0497 1376.456 1314.8972 1381.2285 1321.9141 C 1386.0011 1328.9309 1391.0655 1336.1175 1396.4219 1343.4082 C 1401.7783 1350.6989 1407.4265 1358.0935 1413.3652 1365.5273 C 1419.304 1372.9612 1425.5331 1380.4346 1432.0527 1387.8809 C 1438.5723 1395.3271 1445.3834 1402.7464 1452.4824 1410.0742 C 1459.5814 1417.402 1466.9696 1424.6382 1474.6465 1431.7168 C 1478.4849 1435.2561 1482.3943 1438.7565 1486.377 1442.209 C 1490.3596 1445.6615 1494.4143 1449.0667 1498.541 1452.416 C 1502.6677 1455.7654 1506.8682 1459.0573 1511.1387 1462.2871 C 1515.4092 1465.517 1519.7499 1468.6833 1524.1641 1471.7773 C 1528.5782 1474.8714 1533.0654 1477.8941 1537.623 1480.8359 C 1542.1807 1483.7778 1546.8088 1486.6388 1551.5098 1489.4121 C 1556.2107 1492.1854 1560.9841 1494.8706 1565.8281 1497.459 C 1570.6721 1500.0474 1575.5873 1502.5386 1580.5742 1504.9258 C 1585.5611 1507.3129 1590.6203 1509.596 1595.75 1511.7656 C 1600.8797 1513.9352 1606.0794 1515.9921 1611.3516 1517.9277 C 1616.6238 1519.8634 1621.9683 1521.6779 1627.3828 1523.3633 C 1632.7974 1525.0487 1638.2831 1526.6046 1643.8398 1528.0234 C 1649.3966 1529.4422 1655.0239 1530.7235 1660.7227 1531.8594 C 1666.4214 1532.9952 1672.1907 1533.9857 1678.0312 1534.8223 C 1686.212 1535.9477 1694.4193 1536.8238 1702.5879 1537.418 C 1710.7565 1538.0121 1718.887 1538.3242 1726.9102 1538.3242 C 1732.1565 1538.3242 1737.3725 1538.1987 1742.5547 1537.9492 C 1747.7369 1537.6997 1752.8846 1537.3269 1757.9961 1536.834 C 1763.1076 1536.341 1768.1823 1535.7283 1773.2168 1534.998 C 1778.2513 1534.2677 1783.2463 1533.4186 1788.1973 1532.457 C 1793.1482 1531.4955 1798.055 1530.4212 1802.916 1529.2344 C 1807.777 1528.0476 1812.5908 1526.7496 1817.3555 1525.3438 C 1822.1201 1523.9378 1826.8362 1522.4236 1831.498 1520.8047 C 1836.1599 1519.1858 1840.7677 1517.4607 1845.3203 1515.6348 C 1849.8729 1513.8089 1854.3698 1511.8823 1858.8066 1509.8555 C 1863.2435 1507.8287 1867.6208 1505.7021 1871.9355 1503.4805 C 1876.2503 1501.2589 1880.5013 1498.9417 1884.6875 1496.5312 C 1888.8737 1494.1209 1892.9957 1491.6184 1897.0469 1489.0254 C 1901.0981 1486.4324 1905.0785 1483.75 1908.9883 1480.9805 C 1912.8981 1478.2109 1916.7361 1475.3541 1920.498 1472.4141 C 1924.26 1469.474 1927.9471 1466.4501 1931.5547 1463.3457 C 1935.1623 1460.2413 1938.6918 1457.0558 1942.1387 1453.793 C 1945.5856 1450.5302 1948.9488 1447.1904 1952.2285 1443.7754 C 1955.5083 1440.3604 1958.7044 1436.8698 1961.8105 1433.3086 C 1964.9167 1429.7474 1967.9333 1426.1154 1970.8594 1422.4141 C 1973.7855 1418.7127 1976.6198 1414.9428 1979.3594 1411.1074 C 1982.099 1407.2721 1984.7443 1403.3715 1987.291 1399.4082 C 1989.8377 1395.4449 1992.2854 1391.4191 1994.6328 1387.334 C 1996.9802 1383.2488 1999.2275 1379.1033 2001.3691 1374.9023 C 2003.5107 1370.7014 2005.5472 1366.4454 2007.4766 1362.1348 C 2009.4059 1357.8241 2011.2287 1353.4592 2012.9395 1349.0449 C 2014.6502 1344.6306 2016.2487 1340.1661 2017.7344 1335.6543 C 2019.22 1331.1425 2020.5916 1326.5838 2021.8457 1321.9805 C 2023.0998 1317.3772 2024.2377 1312.7297 2025.2539 1308.041 C 2026.2701 1303.3523 2027.1657 1298.6215 2027.9375 1293.8535 C 2028.7093 1289.0855 2029.356 1284.2807 2029.877 1279.4395 C 2030.3979 1274.5982 2030.7929 1269.7209 2031.0566 1264.8125 C 2031.3203 1259.9041 2031.4531 1254.9636 2031.4531 1249.9941 C 2031.4531 1245.0246 2031.3203 1240.0842 2031.0566 1235.1758 C 2030.793 1230.2674 2030.3978 1225.392 2029.877 1220.5508 C 2029.3561 1215.7095 2028.7092 1210.9028 2027.9375 1206.1348 C 2027.1658 1201.3668 2026.2699 1196.636 2025.2539 1191.9473 C 2024.2379 1187.2586 2023.1016 1182.6111 2021.8477 1178.0078 C 2020.5937 1173.4045 2019.2218 1168.8458 2017.7363 1164.334 C 2016.2508 1159.8222 2014.652 1155.3576 2012.9414 1150.9434 C 2011.2308 1146.5291 2009.4078 1142.1661 2007.4785 1137.8555 C 2005.5492 1133.5448 2003.5127 1129.2869 2001.3711 1125.0859 C 1999.2295 1120.885 1996.9841 1116.7414 1994.6367 1112.6562 C 1992.2893 1108.5711 1989.8398 1104.5453 1987.293 1100.582 C 1984.7461 1096.6188 1982.1012 1092.7181 1979.3613 1088.8828 C 1976.6215 1085.0475 1973.7877 1081.2775 1970.8613 1077.5762 C 1967.9349 1073.8749 1964.9171 1070.2409 1961.8105 1066.6797 C 1958.704 1063.1185 1955.5088 1059.6299 1952.2285 1056.2148 C 1948.9482 1052.7998 1945.5824 1049.46 1942.1348 1046.1973 C 1938.6872 1042.9345 1935.1573 1039.7489 1931.5488 1036.6445 C 1927.9403 1033.5401 1924.2532 1030.5162 1920.4902 1027.5762 C 1916.7273 1024.6362 1912.8876 1021.7793 1908.9766 1019.0098 C 1905.0656 1016.2403 1901.0839 1013.5578 1897.0312 1010.9648 C 1892.9787 1008.3719 1888.8558 1005.8693 1884.668 1003.459 C 1880.4802 1001.0487 1876.2267 998.73133 1871.9102 996.50977 C 1867.5936 994.2882 1863.2143 992.16153 1858.7754 990.13477 C 1854.3365 988.108 1849.8381 986.18135 1845.2832 984.35547 C 1840.7283 982.52959 1836.1175 980.80446 1831.4531 979.18555 C 1826.7888 977.56663 1822.0702 976.05432 1817.3027 974.64844 C 1812.5353 973.24256 1807.7176 971.94457 1802.8535 970.75781 C 1797.9894 969.57105 1793.0794 968.49477 1788.125 967.5332 C 1783.1706 966.57164 1778.1729 965.72443 1773.1348 964.99414 C 1768.0966 964.26385 1763.0179 963.65114 1757.9023 963.1582 C 1752.7868 962.66526 1747.6338 962.29248 1742.4473 962.04297 C 1737.2607 961.79346 1732.0402 961.66602 1726.7891 961.66602 z M 1667.748 1112.1406 L 1757.6172 1112.1406 L 1757.6172 1206.3789 L 1851.7188 1206.3789 L 1851.7188 1295.9453 L 1757.6172 1295.9453 L 1757.6172 1390.168 L 1667.748 1390.168 L 1667.748 1295.9453 L 1573.6875 1295.9453 L 1573.6875 1206.3789 L 1667.748 1206.3789 L 1667.748 1112.1406 z "
     id="path932"
     transform="matrix(0.54910004,0,0,0.54910004,0,-0.03305)" />
  <path
     style="opacity:1;fill:#338484;fill-opacity:1;fill-rule:nonzero;stroke:none;stroke-width:10.03020859;stroke-miterlimit:10;stroke-dasharray:none;stroke-dashoffset:0;stroke-opacity:1"
     d="M 1250 0 A 1250 1250 0 0 0 0 1250 A 1250 1250 0 0 0 1250 2500 A 1250 1250 0 0 0 2500 1250 A 1250 1250 0 0 0 1250 0 z M 773.42773 803.46484 C 779.30918 803.46484 785.21671 803.57002 791.13867 803.78125 C 797.06063 803.99248 802.99719 804.30807 808.93555 804.73047 C 814.8739 805.15286 820.81353 805.68094 826.74414 806.31445 C 832.67475 806.94796 838.5954 807.68669 844.49414 808.53125 C 850.6936 809.41537 856.829 810.41283 862.90039 811.51562 C 868.97178 812.61842 874.98004 813.82813 880.92383 815.14062 C 886.86762 816.45312 892.74781 817.86766 898.56445 819.38086 C 904.3811 820.89406 910.13426 822.50601 915.82422 824.21094 C 921.51418 825.91586 927.14134 827.7139 932.70508 829.60156 C 938.26882 831.48922 943.76905 833.46593 949.20703 835.52734 C 954.64501 837.58875 960.01934 839.73476 965.33203 841.96094 C 970.64472 844.18711 975.89613 846.49305 981.08398 848.875 C 986.27184 851.25695 991.39746 853.7154 996.46094 856.24414 C 1001.5244 858.77288 1006.5253 861.37251 1011.4648 864.03906 C 1016.4044 866.70561 1021.2815 869.43901 1026.0977 872.23438 C 1030.9138 875.02974 1035.6682 877.88753 1040.3613 880.80273 C 1049.7476 886.63313 1058.888 892.69341 1067.7852 898.94922 C 1076.6823 905.20503 1085.3364 911.65629 1093.748 918.26562 C 1102.1597 924.87496 1110.3299 931.64223 1118.2598 938.5332 C 1126.1896 945.42418 1133.8783 952.43835 1141.3301 959.53906 C 1148.7819 966.63978 1155.9972 973.82783 1162.9746 981.06641 C 1169.952 988.30498 1176.6925 995.5939 1183.1992 1002.8984 C 1189.7059 1010.203 1195.9779 1017.5217 1202.0176 1024.8203 C 1208.0573 1032.1189 1213.865 1039.3983 1219.4414 1046.6191 C 1225.0178 1053.8399 1230.3636 1061.0031 1235.4805 1068.0742 C 1240.5973 1075.1453 1245.4856 1082.1232 1250.1465 1088.9727 C 1254.7933 1082.1232 1259.667 1075.145 1264.7715 1068.0742 C 1269.8759 1061.0034 1275.2097 1053.8394 1280.7754 1046.6191 C 1286.3411 1039.3989 1292.1393 1032.1221 1298.1699 1024.8242 C 1304.2005 1017.5263 1310.4638 1010.208 1316.9629 1002.9043 C 1323.462 995.60058 1330.1967 988.31192 1337.168 981.07422 C 1344.1392 973.83652 1351.348 966.65064 1358.7949 959.55078 C 1366.2419 952.45092 1373.9272 945.43706 1381.8535 938.54688 C 1389.7798 931.65669 1397.9462 924.88993 1406.3555 918.28125 C 1414.7647 911.67257 1423.4167 905.22215 1432.3125 898.9668 C 1441.2083 892.71144 1450.3483 886.65051 1459.7344 880.82031 C 1464.4274 877.90521 1469.1818 875.04729 1473.998 872.25195 C 1478.8143 869.45661 1483.6929 866.72324 1488.6328 864.05664 C 1493.5727 861.39004 1498.5746 858.79061 1503.6387 856.26172 C 1508.7027 853.73283 1513.8289 851.27478 1519.0176 848.89258 C 1524.2062 846.51038 1529.4578 844.20504 1534.7715 841.97852 C 1540.0852 839.75199 1545.4612 837.60484 1550.9004 835.54297 C 1556.3396 833.48109 1561.8412 831.50348 1567.4062 829.61523 C 1572.9713 827.72699 1578.5995 825.9283 1584.291 824.22266 C 1589.9825 822.51702 1595.7364 820.90468 1601.5547 819.39062 C 1607.373 817.87657 1613.2555 816.45997 1619.2012 815.14648 C 1625.1468 813.83299 1631.1571 812.62153 1637.2305 811.51758 C 1643.3038 810.41363 1649.441 809.41668 1655.6426 808.53125 C 1661.5614 807.68304 1667.4958 806.94278 1673.4375 806.30859 C 1679.3792 805.6744 1685.3284 805.14805 1691.2715 804.72656 C 1697.2146 804.30508 1703.1531 803.98938 1709.0762 803.7793 C 1714.9992 803.56921 1720.9057 803.46484 1726.7871 803.46484 C 1734.4989 803.46484 1742.1819 803.64343 1749.8301 804 C 1757.4783 804.35657 1765.0919 804.89064 1772.666 805.59961 C 1780.2401 806.30858 1787.7741 807.19279 1795.2637 808.25 C 1802.7533 809.30721 1810.1991 810.53623 1817.5938 811.9375 C 1824.9884 813.33877 1832.3319 814.91118 1839.6211 816.65234 C 1846.9103 818.39351 1854.145 820.30397 1861.3184 822.38086 C 1868.4917 824.45775 1875.6053 826.70092 1882.6523 829.10938 C 1889.6994 831.51783 1896.6795 834.09228 1903.5898 836.82812 C 1910.5002 839.56397 1917.3404 842.46242 1924.1035 845.52148 C 1930.8666 848.58055 1937.5527 851.79962 1944.1582 855.17773 C 1950.7637 858.55585 1957.2872 862.09216 1963.7246 865.78516 C 1970.162 869.47815 1976.5126 873.32832 1982.7715 877.33203 C 1989.0303 881.33574 1995.1977 885.49248 2001.2676 889.80273 C 2007.3375 894.11299 2013.3112 898.57682 2019.1816 903.18945 C 2025.0521 907.80209 2030.8199 912.56377 2036.4805 917.47461 C 2042.1411 922.38545 2047.6945 927.44551 2053.1348 932.65039 C 2058.6375 937.91457 2063.9847 943.29018 2069.1758 948.77148 C 2074.3669 954.25279 2079.4022 959.83899 2084.2773 965.52734 C 2089.1525 971.21569 2093.867 977.00531 2098.4219 982.89062 C 2102.9768 988.77594 2107.3712 994.75789 2111.6016 1000.8301 C 2115.8319 1006.9023 2119.8993 1013.0655 2123.8008 1019.3145 C 2127.7023 1025.5634 2131.4375 1031.8968 2135.0059 1038.3125 C 2138.5742 1044.7282 2141.9742 1051.2246 2145.2051 1057.7969 C 2148.4359 1064.3692 2151.4976 1071.0175 2154.3867 1077.7363 C 2157.2758 1084.4552 2159.9941 1091.2462 2162.5371 1098.1016 C 2165.0801 1104.9569 2167.448 1111.8777 2169.6406 1118.8594 C 2171.8332 1125.8411 2173.8496 1132.8825 2175.6875 1139.9805 C 2177.5254 1147.0785 2179.1851 1154.2333 2180.6641 1161.4375 C 2182.143 1168.6417 2183.441 1175.895 2184.5566 1183.1953 C 2185.6723 1190.4957 2186.6054 1197.8421 2187.3535 1205.2285 C 2188.1016 1212.6149 2188.6648 1220.0416 2189.041 1227.5039 C 2189.4172 1234.9663 2189.6074 1242.464 2189.6074 1249.9922 C 2189.6074 1257.511 2189.4183 1265.0019 2189.043 1272.457 C 2188.6677 1279.9122 2188.1058 1287.3318 2187.3594 1294.7129 C 2186.613 1302.094 2185.6817 1309.4357 2184.5684 1316.7324 C 2183.455 1324.0291 2182.1596 1331.2805 2180.6836 1338.4824 C 2179.2075 1345.6843 2177.5514 1352.8368 2175.7168 1359.9336 C 2173.8822 1367.0303 2171.8687 1374.0715 2169.6797 1381.0527 C 2167.4907 1388.0339 2165.1251 1394.9553 2162.5859 1401.8105 C 2160.0468 1408.6658 2157.3344 1415.4549 2154.4492 1422.1738 C 2151.564 1428.8928 2148.5063 1435.541 2145.2793 1442.1133 C 2142.0523 1448.6855 2138.6564 1455.1825 2135.0918 1461.5977 C 2131.5272 1468.0128 2127.7946 1474.3461 2123.8965 1480.5938 C 2119.9984 1486.8414 2115.9344 1493.0044 2111.707 1499.0742 C 2107.4797 1505.1441 2103.0876 1511.1223 2098.5352 1517.0039 C 2093.9827 1522.8855 2089.2699 1528.6705 2084.3965 1534.3535 C 2079.5231 1540.0365 2074.4909 1545.6158 2069.3008 1551.0898 C 2064.1107 1556.5638 2058.7624 1561.9309 2053.2598 1567.1855 C 2047.8098 1572.3969 2042.2479 1577.4619 2036.5801 1582.3789 C 2030.9123 1587.2959 2025.1392 1592.0652 2019.2637 1596.6836 C 2013.3882 1601.302 2007.4109 1605.7703 2001.3379 1610.0859 C 1995.2649 1614.4016 1989.0962 1618.5655 1982.8359 1622.5742 C 1976.5757 1626.583 1970.2245 1630.4371 1963.7871 1634.1348 C 1957.3497 1637.8324 1950.825 1641.3735 1944.2207 1644.7559 C 1937.6165 1648.1383 1930.9328 1651.3628 1924.1719 1654.4258 C 1917.4109 1657.4887 1910.5735 1660.3896 1903.666 1663.1289 C 1896.7586 1665.8682 1889.7801 1668.4459 1882.7363 1670.8574 C 1875.6926 1673.269 1868.5839 1675.5142 1861.4141 1677.5938 C 1854.2442 1679.6733 1847.0143 1681.5867 1839.7285 1683.3301 C 1832.4428 1685.0735 1825.1004 1686.6477 1817.709 1688.0508 C 1810.3175 1689.4539 1802.8756 1690.6856 1795.3887 1691.7441 C 1787.9017 1692.8027 1780.3711 1693.6885 1772.7988 1694.3984 C 1765.2266 1695.1083 1757.6142 1695.643 1749.9668 1696 C 1742.3194 1696.357 1734.6361 1696.5352 1726.9238 1696.5352 C 1721.0465 1696.5352 1715.1339 1696.4305 1709.2012 1696.2168 C 1703.2685 1696.0031 1697.3155 1695.6817 1691.3574 1695.25 C 1685.3994 1694.8183 1679.4358 1694.2753 1673.4824 1693.6211 C 1667.529 1692.9669 1661.5867 1692.2013 1655.668 1691.3203 C 1649.4659 1690.4351 1643.3278 1689.4378 1637.2539 1688.334 C 1631.18 1687.2302 1625.1707 1686.0204 1619.2246 1684.707 C 1613.2785 1683.3937 1607.395 1681.9769 1601.5762 1680.4629 C 1595.7574 1678.9489 1590.0025 1677.3365 1584.3105 1675.6309 C 1578.6186 1673.9252 1572.9894 1672.1265 1567.4238 1670.2383 C 1561.8583 1668.35 1556.3556 1666.3725 1550.916 1664.3105 C 1545.4764 1662.2486 1540.1012 1660.1036 1534.7871 1657.877 C 1529.473 1655.6503 1524.2203 1653.3432 1519.0312 1650.9609 C 1513.8422 1648.5786 1508.7168 1646.1208 1503.6523 1643.5918 C 1498.5879 1641.0628 1493.5848 1638.4617 1488.6445 1635.7949 C 1483.7043 1633.1282 1478.8263 1630.3951 1474.0098 1627.5996 C 1469.1932 1624.8041 1464.4375 1621.9465 1459.7441 1619.0312 C 1450.3575 1613.2007 1441.2186 1607.1385 1432.3223 1600.8828 C 1423.4259 1594.6271 1414.7729 1588.1774 1406.3633 1581.5684 C 1397.9536 1574.9593 1389.7859 1568.1912 1381.8594 1561.3008 C 1373.9328 1554.4103 1366.2479 1547.3969 1358.8008 1540.2969 C 1351.3537 1533.1968 1344.145 1526.0112 1337.1738 1518.7734 C 1330.2026 1511.5357 1323.4677 1504.247 1316.9688 1496.9434 C 1310.4698 1489.6398 1304.208 1482.321 1298.1777 1475.0234 C 1292.1475 1467.7258 1286.3504 1460.4482 1280.7852 1453.2285 C 1275.22 1446.0088 1269.885 1438.8473 1264.7812 1431.7773 C 1259.6775 1424.7074 1254.8041 1417.7292 1250.1582 1410.8809 C 1245.4976 1417.7291 1240.6107 1424.7064 1235.4941 1431.7773 C 1230.3776 1438.8482 1225.0313 1446.0128 1219.4551 1453.2344 C 1213.8788 1460.4559 1208.0728 1467.735 1202.0332 1475.0352 C 1195.9936 1482.3353 1189.7215 1489.6562 1183.2148 1496.9629 C 1176.7082 1504.2696 1169.9656 1511.5615 1162.9883 1518.8027 C 1156.0109 1526.044 1148.7975 1533.236 1141.3457 1540.3398 C 1133.8939 1547.4437 1126.2052 1554.4611 1118.2754 1561.3555 C 1110.3455 1568.2498 1102.1753 1575.02 1093.7637 1581.6328 C 1085.352 1588.2457 1076.6979 1594.6997 1067.8008 1600.959 C 1058.9037 1607.2183 1049.7632 1613.2834 1040.377 1619.1172 C 1035.6838 1622.0341 1030.9294 1624.8925 1026.1133 1627.6895 C 1021.2972 1630.4864 1016.42 1633.2225 1011.4805 1635.8906 C 1006.5409 1638.5587 1001.54 1641.1593 996.47656 1643.6895 C 991.41311 1646.2197 986.28742 1648.6792 981.09961 1651.0625 C 975.9118 1653.4458 970.66029 1655.7531 965.34766 1657.9805 C 960.03502 1660.2079 954.66057 1662.3555 949.22266 1664.418 C 943.78474 1666.4805 938.28436 1668.4571 932.7207 1670.3457 C 927.15704 1672.2343 921.52971 1674.0346 915.83984 1675.7402 C 910.14998 1677.4459 904.39661 1679.0585 898.58008 1680.5723 C 892.76355 1682.086 886.88506 1683.5016 880.94141 1684.8145 C 874.99775 1686.1273 868.98921 1687.3365 862.91797 1688.4395 C 856.84672 1689.5424 850.71296 1690.5379 844.51367 1691.4219 A 502.39297 502.39297 0 0 1 794.50781 1696.0469 A 502.39297 502.39297 0 0 1 773.24609 1696.4941 C 765.53427 1696.4941 757.85077 1696.3157 750.20312 1695.959 C 742.55548 1695.6023 734.94227 1695.0667 727.36914 1694.3574 C 719.79601 1693.6481 712.26369 1692.7648 704.77539 1691.707 C 697.28709 1690.6493 689.84431 1689.4177 682.45117 1688.0156 C 675.05804 1686.6136 667.71342 1685.0411 660.42578 1683.2988 C 653.13814 1681.5566 645.9062 1679.6447 638.73438 1677.5664 C 631.56255 1675.4881 624.45193 1673.2422 617.40625 1670.832 C 610.36057 1668.4218 603.37991 1665.8474 596.4707 1663.1094 C 589.5615 1660.3714 582.72334 1657.4699 575.96094 1654.4082 C 569.19854 1651.3465 562.51152 1648.1253 555.90625 1644.7441 C 549.30098 1641.363 542.77766 1637.8216 536.33984 1634.125 C 529.90203 1630.4284 523.55105 1626.5762 517.29102 1622.5684 C 511.03099 1618.5606 504.86098 1614.3989 498.78906 1610.084 C 492.71714 1605.7691 486.74262 1601.3015 480.86914 1596.6836 C 474.99566 1592.0657 469.2233 1587.2957 463.55859 1582.3789 C 457.89388 1577.4621 452.33624 1572.397 446.89062 1567.1855 C 441.39311 1561.9309 436.05058 1556.5638 430.86328 1551.0898 C 425.67598 1545.6158 420.64412 1540.0365 415.77148 1534.3535 C 410.89885 1528.6705 406.18438 1522.8855 401.63086 1517.0039 C 397.07734 1511.1223 392.68503 1505.1441 388.45508 1499.0742 C 384.22512 1493.0044 380.1578 1486.8414 376.25586 1480.5938 C 372.35392 1474.3461 368.6183 1468.0128 365.04883 1461.5977 C 361.47936 1455.1825 358.0763 1448.6855 354.84375 1442.1133 C 351.6112 1435.541 348.54938 1428.8928 345.6582 1422.1738 C 342.76702 1415.4549 340.04731 1408.6658 337.50195 1401.8105 C 334.95659 1394.9553 332.58376 1388.0339 330.38867 1381.0527 C 328.19358 1374.0715 326.1763 1367.0303 324.33594 1359.9336 C 322.49557 1352.8368 320.83276 1345.6843 319.35156 1338.4824 C 317.87037 1331.2805 316.5707 1324.0291 315.45312 1316.7324 C 314.33555 1309.4357 313.39989 1302.094 312.65039 1294.7129 C 311.90089 1287.3318 311.33791 1279.9122 310.96094 1272.457 C 310.58396 1265.0019 310.39258 1257.511 310.39258 1249.9922 C 310.39258 1242.464 310.58394 1234.9663 310.96094 1227.5039 C 311.33793 1220.0416 311.90079 1212.6149 312.65039 1205.2285 C 313.39999 1197.8421 314.3353 1190.4957 315.45312 1183.1953 C 316.57095 1175.895 317.87186 1168.6417 319.35352 1161.4375 C 320.83517 1154.2333 322.49678 1147.0785 324.33789 1139.9805 C 326.179 1132.8825 328.20031 1125.8411 330.39648 1118.8594 C 332.59266 1111.8777 334.96487 1104.9569 337.51172 1098.1016 C 340.05857 1091.2462 342.77873 1084.4552 345.67188 1077.7363 C 348.56502 1071.0175 351.63018 1064.3692 354.86523 1057.7969 C 358.10028 1051.2246 361.50555 1044.7282 365.07812 1038.3125 C 368.6507 1031.8968 372.39117 1025.5634 376.29688 1019.3145 C 380.20258 1013.0655 384.27336 1006.9023 388.50781 1000.8301 C 392.74227 994.75789 397.1404 988.77594 401.69922 982.89062 C 406.25804 977.00531 410.97862 971.21569 415.85742 965.52734 C 420.73622 959.83899 425.7724 954.25279 430.9668 948.77148 C 436.16119 943.29018 441.51393 937.91457 447.01953 932.65039 C 452.45991 927.43811 458.01308 922.37155 463.67383 917.45508 C 469.33458 912.5386 475.10197 907.77098 480.97266 903.1543 C 486.84335 898.53762 492.81651 894.07265 498.88672 889.75977 C 504.95693 885.44688 511.12352 881.28635 517.38281 877.28125 C 523.64211 873.27615 529.99368 869.42574 536.43164 865.73242 C 542.8696 862.03911 549.39575 858.50253 556.00195 855.125 C 562.60815 851.74747 569.29458 848.53042 576.05859 845.47266 C 582.8226 842.4149 589.66282 839.51719 596.57422 836.7832 C 603.48561 834.04921 610.46923 831.47849 617.51758 829.07227 C 624.56593 826.66604 631.67863 824.42407 638.85352 822.34961 C 646.0284 820.27514 653.26565 818.36762 660.55664 816.62891 C 667.84763 814.8902 675.19317 813.32083 682.58984 811.92188 C 689.98651 810.52292 697.43386 809.29545 704.92578 808.24023 C 712.4177 807.18502 719.9545 806.30122 727.53125 805.59375 C 735.108 804.88628 742.72385 804.35378 750.375 803.99805 C 758.02615 803.64231 765.71261 803.46484 773.42773 803.46484 z "
     id="path910"
     transform="matrix(0.54910004,0,0,0.54910004,0,-0.03305)" />
</svg>
