<?xml version="1.0" encoding="UTF-8" standalone="no"?>
<!-- Generator: Adobe Illustrator 18.0.0, SVG Export Plug-In . SVG Version: 6.00 Build 0)  -->

<svg
   xmlns:dc="http://purl.org/dc/elements/1.1/"
   xmlns:cc="http://creativecommons.org/ns#"
   xmlns:rdf="http://www.w3.org/1999/02/22-rdf-syntax-ns#"
   xmlns:svg="http://www.w3.org/2000/svg"
   xmlns="http://www.w3.org/2000/svg"
   xmlns:sodipodi="http://sodipodi.sourceforge.net/DTD/sodipodi-0.dtd"
   xmlns:inkscape="http://www.inkscape.org/namespaces/inkscape"
   version="1.1"
   id="Layer_1"
   x="0px"
   y="0px"
   viewBox="0 0 52 52"
   enable-background="new 0 0 75 22"
   xml:space="preserve"
   sodipodi:docname="icon_sonoff.svg"
   width="52"
   height="52"
   inkscape:version="0.92.2 5c3e80d, 2017-08-06"><metadata
     id="metadata37"><rdf:RDF><cc:Work
         rdf:about=""><dc:format>image/svg+xml</dc:format><dc:type
           rdf:resource="http://purl.org/dc/dcmitype/StillImage" /><dc:title></dc:title></cc:Work></rdf:RDF></metadata><defs
     id="defs35" /><sodipodi:namedview
     pagecolor="#ffffff"
     bordercolor="#666666"
     borderopacity="1"
     objecttolerance="10"
     gridtolerance="10"
     guidetolerance="10"
     inkscape:pageopacity="0"
     inkscape:pageshadow="2"
     inkscape:window-width="1600"
     inkscape:window-height="835"
     id="namedview33"
     showgrid="false"
     inkscape:zoom="5.1733333"
     inkscape:cx="40.012887"
     inkscape:cy="11"
     inkscape:window-x="0"
     inkscape:window-y="0"
     inkscape:window-maximized="1"
     inkscape:current-layer="Layer_1" /><g
     id="g859"
     transform="matrix(0.62928965,0,0,0.62928965,2.3072447,0.2935178)"><polygon
       transform="translate(0,30)"
       style="clip-rule:evenodd;fill:#f8951d;fill-rule:evenodd"
       id="polygon2"
       points="62.3,11.1 62.3,14 54.6,14 54.6,15.4 62.3,15.4 62.3,18.2 54.6,18.2 54.6,21.8 51.7,21.8 51.7,11.1 " /><polygon
       transform="translate(0,30)"
       style="clip-rule:evenodd;fill:#f8951d;fill-rule:evenodd"
       id="polygon4"
       points="0.4,14 0.4,2.7 11,2.7 11,5.6 3.2,5.6 3.2,11.1 11,11.1 11,21.8 0.4,21.8 0.4,18.9 8.1,18.9 8.1,14 " /><path
       style="clip-rule:evenodd;fill:#f8951d;fill-rule:evenodd"
       inkscape:connector-curvature="0"
       id="path6"
       d="m 41.9,44 c 0.7,0 4.5,-0.1 4.9,0 v 4.8 H 41.9 Z M 39,41.3 v 10.3 c 0,0.1 0,0.1 0.1,0.1 H 49.5 V 41.1 H 39.2 c -0.1,0 -0.2,0.1 -0.2,0.2 z" /><path
       style="clip-rule:evenodd;fill:#f8951d;fill-rule:evenodd"
       inkscape:connector-curvature="0"
       id="path8"
       d="m 16.6,44 c 0.7,0 4.5,-0.1 4.9,0 v 4.8 h -4.9 z m -2.9,7.8 H 24.3 V 41.1 H 13.7 Z" /><path
       style="clip-rule:evenodd;fill:#f8951d;fill-rule:evenodd"
       inkscape:connector-curvature="0"
       id="path10"
       d="m 26.4,41.3 v 10.3 c 0,0.1 0,0.1 0.1,0.1 h 2.6 c 0.1,0 0.1,0 0.1,-0.1 V 44 h 4.9 v 7.6 c 0,0.1 0,0.1 0.1,0.1 H 37 V 41.1 H 26.5 c -0.1,0 -0.1,0.1 -0.1,0.2 z" /><path
       style="clip-rule:evenodd;fill:#f8951d;fill-rule:evenodd"
       inkscape:connector-curvature="0"
       id="path12"
       d="M 13.7,41.1 H 24.3 V 51.7 H 13.7 Z m 2.9,2.9 v 4.9 h 4.9 V 44 Z" /><polygon
       transform="translate(0,30)"
       style="clip-rule:evenodd;fill:#f8951d;fill-rule:evenodd"
       id="polygon14"
       points="29.3,21.8 29.3,14 34.1,14 34.1,21.8 37,21.8 37,11.1 26.4,11.1 26.4,21.8 " /><path
       style="clip-rule:evenodd;fill:#f8951d;fill-rule:evenodd"
       inkscape:connector-curvature="0"
       id="path16"
       d="M 39,41.1 H 49.6 V 51.7 H 39 Z m 2.9,2.9 v 4.9 h 4.9 V 44 Z" /><polygon
       transform="translate(0,30)"
       style="clip-rule:evenodd;fill:#f8951d;fill-rule:evenodd"
       id="polygon18"
       points="74.9,11.2 74.9,14.1 67.2,14.1 67.2,15.4 74.9,15.4 74.9,18.2 67.2,18.2 67.2,21.8 64.4,21.8 64.4,11.2 " /><g
       transform="translate(0,30)"
       id="g22"><path
         style="fill:#f8951d"
         inkscape:connector-curvature="0"
         id="path20"
         d="M 17.3,8.5 16.9,8.1 C 17.8,7 18.3,5.7 18.3,4.3 18.3,2.8 17.7,1.4 16.7,0.3 L 17,-0.1 c 1.1,1.2 1.7,2.8 1.7,4.4 0.1,1.6 -0.5,3 -1.4,4.2 z" /></g><g
       transform="translate(0,30)"
       id="g26"><path
         style="fill:#f8951d"
         inkscape:connector-curvature="0"
         id="path24"
         d="M 15.7,7.4 15.3,7 c 0.7,-0.8 1,-1.7 1,-2.7 0,-1.1 -0.4,-2.2 -1.3,-3 L 15.4,1 c 0.9,0.9 1.4,2.1 1.4,3.4 0.1,1.1 -0.4,2.2 -1.1,3 z" /></g><g
       transform="translate(0,30)"
       id="g30"><path
         style="fill:#f8951d"
         inkscape:connector-curvature="0"
         id="path28"
         d="M 14,6.3 13.6,5.9 C 14,5.5 14.3,4.9 14.3,4.3 14.3,3.6 13.9,2.9 13.4,2.5 L 13.7,2 c 0.7,0.5 1.2,1.3 1.2,2.2 0,0.9 -0.3,1.6 -0.9,2.1 z" /></g></g></svg>