<?xml version="1.0" encoding="UTF-8" standalone="no"?>
<svg
   xmlns:dc="http://purl.org/dc/elements/1.1/"
   xmlns:cc="http://creativecommons.org/ns#"
   xmlns:rdf="http://www.w3.org/1999/02/22-rdf-syntax-ns#"
   xmlns:svg="http://www.w3.org/2000/svg"
   xmlns="http://www.w3.org/2000/svg"
   id="svg8"
   version="1.1"
   viewBox="0 0 16.933333 8.4666664"
   height="32"
   width="64">
  <defs
     id="defs2" />
  <metadata
     id="metadata5">
    <rdf:RDF>
      <cc:Work
         rdf:about="">
        <dc:format>image/svg+xml</dc:format>
        <dc:type
           rdf:resource="http://purl.org/dc/dcmitype/StillImage" />
        <dc:title></dc:title>
      </cc:Work>
    </rdf:RDF>
  </metadata>
  <g
     transform="translate(0,-288.53334)"
     id="layer1">
    <g
       transform="translate(8.4665911)"
       id="g4570">
      <path
         style="fill:none;stroke:#e2c84f;stroke-width:0.13229167;stroke-linecap:butt;stroke-linejoin:miter;stroke-miterlimit:4;stroke-dasharray:none;stroke-opacity:1"
         d="m 0.66893455,293.31204 c 1.88020995,1.41142 2.29206525,-3.39438 4.60203735,-1.0148 2.3099721,2.37956 2.5641139,2.37956 2.5641139,2.37956"
         id="path4533" />
      <path
         style="fill:none;stroke:#ce5c51;stroke-width:0.13229167;stroke-linecap:butt;stroke-linejoin:miter;stroke-miterlimit:4;stroke-dasharray:none;stroke-opacity:1"
         d="m 1.2992931,292.6651 4.5120908,-2.07887 0.4015997,-0.17718 v 0"
         id="path4535" />
      <path
         style="fill:none;fill-opacity:1;stroke:#48c06e;stroke-width:0.39759469;stroke-linecap:butt;stroke-linejoin:miter;stroke-miterlimit:4;stroke-dasharray:none;stroke-opacity:1"
         d="M 7.729253,296.28146 H 0.71851462 v -7.01074"
         id="rect16" />
      <rect
         style="fill:#ffffff;fill-opacity:1;stroke:none;stroke-width:0.02839313;stroke-linecap:butt;stroke-linejoin:miter;stroke-miterlimit:4;stroke-dasharray:none;stroke-opacity:1"
         id="rect4537"
         width="0.21261194"
         height="0.56238151"
         x="7.730794"
         y="294.25946" />
    </g>
    <g
       id="flowRoot4572"
       style="font-style:normal;font-variant:normal;font-weight:normal;font-stretch:normal;font-size:17.33333397px;line-height:25px;font-family:'Noto Sans';-inkscape-font-specification:'Noto Sans';text-align:center;letter-spacing:0px;word-spacing:0px;text-anchor:middle;fill:#000000;fill-opacity:1;stroke:none"
       transform="matrix(0.55019568,0,0,0.55019568,25.612428,289.9099)"
       aria-label="D">
      <path
         id="path6372"
         style=""
         d="m -34.717122,5.0737988 q 0,3.0638022 -1.675782,4.6888023 -1.667317,1.6165369 -4.790364,1.6165369 H -44.62793 V -0.99456079 h 3.808594 q 2.886068,0 4.494141,1.59114589 1.608073,1.5826824 1.608073,4.4772137 z m -1.641927,0.050781 q 0,-2.3613283 -1.167969,-3.5716148 -1.159505,-1.21875 -3.51237,-1.21875 h -2.03125 v 9.7076827 h 1.684245 q 5.027344,0 5.027344,-4.9173179 z" />
    </g>
  </g>
</svg>
