<?xml version="1.0" encoding="UTF-8" standalone="no"?>
<!-- Created with Inkscape (http://www.inkscape.org/) -->

<svg
   xmlns:dc="http://purl.org/dc/elements/1.1/"
   xmlns:cc="http://creativecommons.org/ns#"
   xmlns:rdf="http://www.w3.org/1999/02/22-rdf-syntax-ns#"
   xmlns:svg="http://www.w3.org/2000/svg"
   xmlns="http://www.w3.org/2000/svg"
   xmlns:sodipodi="http://sodipodi.sourceforge.net/DTD/sodipodi-0.dtd"
   xmlns:inkscape="http://www.inkscape.org/namespaces/inkscape"
   width="200mm"
   height="200mm"
   viewBox="0 0 200 200"
   version="1.1"
   id="svg8"
   inkscape:version="0.92.2 5c3e80d, 2017-08-06"
   sodipodi:docname="board.svg">
  <defs
     id="defs2" />
  <sodipodi:namedview
     id="base"
     pagecolor="#ffffff"
     bordercolor="#666666"
     borderopacity="1.0"
     inkscape:pageopacity="0.0"
     inkscape:pageshadow="2"
     inkscape:zoom="0.35"
     inkscape:cx="-101.42857"
     inkscape:cy="560"
     inkscape:document-units="mm"
     inkscape:current-layer="layer1"
     showgrid="false"
     inkscape:window-width="1600"
     inkscape:window-height="835"
     inkscape:window-x="0"
     inkscape:window-y="0"
     inkscape:window-maximized="1" />
  <metadata
     id="metadata5">
    <rdf:RDF>
      <cc:Work
         rdf:about="">
        <dc:format>image/svg+xml</dc:format>
        <dc:type
           rdf:resource="http://purl.org/dc/dcmitype/StillImage" />
        <dc:title></dc:title>
      </cc:Work>
    </rdf:RDF>
  </metadata>
  <g
     inkscape:label="Layer 1"
     inkscape:groupmode="layer"
     id="layer1"
     transform="translate(0,-97)">
    <g
       aria-label="PLACEHOLDER"
       transform="matrix(0.41884174,-0.4122766,0.59596004,0.58661866,-0.13925275,272.18818)"
       style="font-style:normal;font-variant:normal;font-weight:normal;font-stretch:normal;font-size:74.66666412px;line-height:25px;font-family:'Aguafina Script';-inkscape-font-specification:'Aguafina Script';letter-spacing:0px;word-spacing:0px;fill:#cccccc;fill-opacity:1;stroke:none"
       id="flowRoot10">
      <path
         d="m 41.076088,22.15033 q -0.522667,0.970667 -6.272,12.618667 -3.808,7.765333 -7.690666,11.722666 -3.808,4.032 -5.824,4.032 -0.896,0 -0.896,-0.821333 l 0.224,-0.896 q 0.821333,-2.24 5.077333,-10.528 4.330667,-8.288 8.064,-14.709333 3.509333,-6.122666 6.869333,-11.797333 3.36,-5.749333 5.002666,-8.4373329 l 1.642667,-2.68799991 q 0.149333,-0.22399999 0.373333,-0.59733331 0.224,-0.37333332 0.970667,-1.34399998 0.821333,-0.9706666 1.642667,-1.6426666 0.821333,-0.7466666 1.941333,-1.3439999 1.12,-0.5973334 2.165333,-0.5973334 0.970667,0 0.970667,0.5226667 0,0.672 -0.896,1.9413333 -5.6,9.557333 -11.946666,21.727999 -0.07467,0.149334 -0.07467,0.298667 0,0.224 0.298667,0.224 4.703999,0 8.661333,-1.792 4.031999,-1.792 6.495999,-4.629333 2.538667,-2.912 3.882667,-6.1973334 1.418667,-3.2853332 1.418667,-6.49599974 0,-4.55466656 -3.434667,-6.86933306 -3.434667,-2.3146666 -8.064,-2.3146666 -3.509333,0 -6.869333,1.0453333 -3.285333,1.0453333 -5.824,3.5839998 -2.464,2.5386666 -2.464,6.0479998 0,2.0906666 1.12,4.0319999 0.373334,0.7466666 0.373334,1.0453333 0,0.448 -0.597334,0.448 -0.149333,0 -0.597333,-0.1493333 -0.224,-0.074667 -0.597333,-0.2986667 -0.373334,-0.224 -1.344,-0.896 -0.970667,-0.6719999 -1.717333,-1.4186666 -0.746667,-0.7466666 -1.344,-1.9413333 -0.597334,-1.2693332 -0.597334,-2.53866654 0,-4.62933316 5.674667,-7.76533306 5.749333,-3.1359998 12.991999,-3.1359998 3.509334,0 6.645333,0.5973332 3.210667,0.5973333 6.197334,1.9413333 3.061333,1.2693333 4.853333,3.7333332 1.792,2.4639999 1.792,5.8239998 0,5.0026665 -2.613334,9.0346665 -2.538666,3.957333 -6.719999,6.346666 -4.106667,2.314667 -8.810667,3.584 -4.704,1.194667 -9.482666,1.194667 -0.07467,-0.07467 -0.224,-0.07467 -0.298667,0 -0.448,0.373333 z"
         style=""
         id="path5747" />
      <path
         d="m 72.474586,46.416996 q -0.746666,0.746667 -1.866666,0.896 -4.554667,0.597334 -13.888,0.597334 l -8.735999,-0.149334 q -1.12,-0.07467 -1.12,-1.045333 l 0.149333,-0.746667 q 1.045333,-2.538666 2.986667,-6.943999 2.016,-4.405334 8.362666,-16.202667 6.346666,-11.871999 12.992,-21.6533322 6.794666,-9.8559996 8.885333,-11.4986658 0.970666,-0.821334 1.791999,-0.821334 0.597334,0 0.597334,0.672 0,1.1946669 -2.016,5.3013334 -2.016,4.1066665 -3.509333,6.6453331 -17.397333,31.3599985 -21.653333,42.5599985 -0.07467,0.224 -0.07467,0.448 0,1.269333 2.613334,1.269333 5.077333,0 9.407999,-3.285333 6.421333,-5.152 11.498667,-11.722666 0.597333,-0.597333 1.194666,-0.597333 0.597334,0 0.597334,0.746666 0,0.746667 -0.821334,2.613333 -4.853333,10.528 -7.392,12.917333 z"
         style=""
         id="path5749" />
      <path
         d="m 91.817921,10.352998 q -5.301333,0 -5.301333,9.855999 v 0.522667 q 0,0.970666 -0.448,0.970666 -1.12,0 -1.717333,-2.687999 -0.522667,-2.688 -0.522667,-4.554667 0,-3.061333 1.344,-5.4506664 1.418667,-2.3893333 4.330667,-2.3893333 5.749333,0 11.050665,6.7199997 4.48,-5.2266664 9.55733,-10.5279995 5.152,-5.3759999 7.98934,-8.0639998 l 2.83733,-2.7626665 q 4.62933,-6.9440002 7.616,-6.9440002 0.74667,0 0.74667,0.672 0,0.448 -0.29867,1.045334 -6.57067,12.91733256 -12.02133,29.119999 -6.86934,20.607999 -6.86934,31.583999 0,3.434666 0.82134,5.002666 0.29866,0.373333 0.29866,0.746667 0,0.522666 -0.896,0.522666 -2.016,0 -3.36,-1.045333 -1.344,-0.970667 -1.94133,-2.613333 -0.52267,-1.642667 -0.74667,-2.986667 -0.224,-1.269333 -0.224,-2.613333 0,-2.24 0.82134,-6.645333 0.82133,-4.405333 0.82133,-6.421333 0,-2.986667 -1.344,-7.018667 -1.26933,-4.106666 -3.43467,-7.466666 -2.389329,3.285333 -4.405329,6.570666 -1.941333,3.285334 -2.762666,4.853334 l -0.746667,1.642666 q -2.688,5.525333 -5.301333,10.08 -2.613333,4.554666 -3.882667,6.346666 l -1.269333,1.717334 q -0.821333,0.970666 -1.493333,0.970666 -0.821333,0 -0.821333,-1.717333 0.224,-10.528 19.114666,-32.629332 -3.658667,-4.405333 -7.541334,-4.405333 z M 117.42859,-1.3696687 q -8.21334,7.1679997 -15.38134,16.7999997 3.136,4.778666 4.85334,10.901333 0.224,0.672 0.37333,0.672 l 0.37333,-0.672 q 1.86667,-6.346667 4.48,-13.141333 2.688,-6.8693333 4.40534,-10.5279999 l 1.71733,-3.58399985 q 0.224,-0.44799995 0.224,-0.59733335 0,-0.1493333 -0.224,-0.1493333 z"
         style=""
         id="path5751" />
      <path
         d="m 148.50275,28.347664 q -1.94133,3.285333 -4.704,6.645333 -2.688,3.285333 -6.12266,6.421333 -3.43467,3.061333 -7.54134,5.002666 -4.10666,1.941334 -7.98933,1.941334 -6.19733,0 -6.19733,-9.258667 0,-11.722666 6.79466,-24.565332 6.86934,-12.8426665 17.472,-20.9813329 0.672,-0.5226666 1.792,-1.1946666 1.19467,-0.7466667 4.33067,-1.9413333 3.21067,-1.2693332 5.824,-1.2693332 2.016,0 3.50933,0.597333 0.14934,0.07467 0.37334,0.07467 0.52266,0 0.82133,-0.522667 1.568,-1.269333 5.00267,-1.269333 h 0.59733 q 1.04533,0 1.04533,1.045333 0,1.6426669 -2.464,5.2266667 -2.38933,3.5839999 -4.48,6.04799984 -2.09066,2.46399996 -3.73333,4.25599986 -2.76267,2.9119999 -3.88267,2.9119999 -0.52266,0 -0.52266,-0.7466666 0,-2.6133333 4.256,-10.229333 0.0747,-0.1493334 0.74666,-1.1946667 0.672,-1.0453333 0.97067,-1.7173332 0.29867,-0.7466667 0.29867,-1.344 0,-1.2693333 -2.016,-1.2693333 -1.64267,0 -3.65867,1.0453333 -1.94133,1.0453333 -3.06133,2.0906666 l -1.19467,1.0453333 q -7.91467,7.3173331 -14.336,19.3386663 -6.34667,11.946666 -6.34667,21.727999 0,7.093333 4.48,7.093333 0.59734,0 1.344,-0.149333 0.82134,-0.149334 2.688,-0.970667 1.94134,-0.896 3.73334,-2.389333 1.86666,-1.568 4.256,-4.704 2.464,-3.210667 4.62933,-7.466666 0.59733,-1.194667 1.568,-3.36 0.97067,-2.24 1.49333,-3.285334 0.59734,-1.045333 0.97067,-1.045333 0.52267,0 0.82133,0.970667 0.29867,0.896 0.29867,1.568 0,2.762666 -1.86667,5.824 z"
         style=""
         id="path5753" />
      <path
         d="m 177.36142,15.355664 q -4.62933,0.224 -10.304,0.224 h -0.896 q -10.528,19.114666 -12.544,25.909332 -0.29867,0.896 -0.29867,1.642667 0,2.24 3.95734,2.24 1.64266,0 3.584,-0.597333 1.94133,-0.672 4.704,-2.24 2.83733,-1.642667 6.34666,-5.152 3.50934,-3.509333 7.168,-8.512 0.448,-0.821333 1.344,-0.821333 0.59733,0 0.59733,0.597333 0,0.149334 -0.14933,0.597334 -3.584,9.183999 -9.10933,16.426666 -0.448,1.045333 -2.24,1.344 -6.12267,0.298666 -12.91733,0.298666 -7.76534,0 -12.544,-0.522666 -0.896,-0.07467 -0.896,-1.045334 0,-0.597333 0.29866,-1.194666 4.256,-9.557333 16.05334,-29.045333 l -3.36,-0.07467 q -0.97067,0 -0.97067,-0.597334 0,-0.597333 0.59733,-1.045333 0.672,-0.522667 1.344,-0.522667 h 3.808 l 9.03467,-14.4853324 q 1.12,-2.0159999 1.12,-3.6586666 0,-1.1199999 -0.52267,-1.9413332 -0.448,-0.8213333 -0.97066,-1.12 l -0.52267,-0.2986666 q -0.672,-0.3733334 -0.672,-0.8213333 0,-0.2986667 0.224,-0.5226667 0.29867,-0.224 0.59733,-0.2986666 l 0.29867,-0.074667 q 7.69066,-0.4479999 15.97866,-0.4479999 6.86934,0 11.05067,0.373333 1.12,0 1.12,0.9706669 0,0.2239999 -0.224,0.8213333 -2.464,6.1973331 -5.00267,9.7066663 -0.37333,0.3733333 -0.82133,0.3733333 -0.672,0 -0.672,-0.97066661 0.37333,-1.41866662 0.37333,-3.06133319 0,-6.1226665 -6.12266,-6.1226665 h -0.29867 q -3.808,0 -5.45067,2.0906666 -3.80799,4.7039998 -10.15466,16.2026661 -0.74667,1.2693328 -1.86667,3.2106668 h 11.2 q 0.74667,0 0.74667,0.448 0,0.448 -0.672,1.045333 -0.59734,0.597333 -1.344,0.672 z"
         style=""
         id="path5755" />
      <path
         d="m 242.86741,-9.5830018 q -5.376,4.8533332 -12.84267,16.7253328 -7.392,11.872 -11.72266,20.309333 -4.256,8.437333 -6.79467,13.962666 -3.50933,7.84 -5.30133,7.84 -1.19467,0 -1.19467,-3.285334 0,-2.389333 0.97067,-5.749333 0.97066,-3.36 2.016,-5.525333 l 0.97066,-2.165333 q 2.53867,-5.301333 2.53867,-11.274667 0,-8.138666 -4.032,-13.8133324 -7.24267,15.2319994 -15.82933,29.1199994 -0.82134,1.344 -1.86667,2.912 -1.04533,1.567999 -2.83733,4.031999 -1.792,2.389334 -3.50934,3.957334 -1.71733,1.568 -2.91199,1.568 -0.672,0 -0.672,-0.821334 l 0.0747,-0.672 q 0.29867,-2.837333 9.408,-18.815999 L 203.51808,3.6329978 q -2.83734,-1.792 -6.34667,-1.792 -3.43467,0 -5.45067,2.0906666 -1.94133,2.0906666 -1.94133,5.5999998 0,1.4933338 0.37333,2.8373328 0.224,0.672 0.224,1.045334 0,0.672 -0.52266,0.672 -1.26934,0 -2.912,-3.210667 -1.64267,-3.2106664 -1.64267,-5.4506663 0,-3.1359999 2.16533,-4.85333317 2.24,-1.79199993 5.89867,-1.79199993 6.272,0 11.12533,3.2106665 l 7.392,-13.0666661 q 0.74667,-0.746667 1.19467,-0.746667 0.74667,0 0.74667,1.344 0,3.9573334 -5.45067,15.9039997 5.6,6.6453333 5.6,17.5466663 0.14933,0.746666 0.37333,0.746666 0.224,0 0.448,-0.597333 4.48,-8.138666 7.69067,-14.6346661 4.33067,-8.73599968 9.48267,-14.1866662 5.22666,-5.5253327 10.528,-5.5253327 1.12,0 1.12,0.448 0,0.224 -0.74667,1.1946662 z"
         style=""
         id="path5757" />
      <path
         d="m 257.31775,-3.4603353 q -1.568,0 -4.33067,2.2399999 -2.76266,2.2399999 -4.48,4.1813332 -1.71733,1.8666666 -2.016,2.3146666 -0.82133,1.1199999 -1.41866,1.1199999 -0.52267,0 -0.52267,-0.8213333 0,-0.224 0.14933,-0.8213333 1.71734,-5.1519998 7.168,-10.3039996 5.52534,-5.2266661 10.37867,-5.2266661 4.33067,0 4.33067,6.6453327 0,3.80799986 -1.64267,9.333333 -1.64267,5.4506663 -2.76267,8.0639993 -1.12,2.538667 -1.86666,4.032 -2.016,3.957333 -4.48,7.914667 -2.464,3.882666 -6.048,8.213333 -3.50934,4.330666 -7.31734,7.615999 -3.73333,3.210667 -8.36266,5.301334 -4.62934,2.165333 -9.10934,2.165333 -6.42133,0 -6.42133,-9.034666 0,-7.392 2.912,-15.082667 2.912,-7.765333 7.09333,-13.439999 4.18134,-5.7493333 8.58667,-9.7813332 4.48,-4.0319998 7.84,-5.0773331 0.37333,-0.1493333 0.97067,-0.1493333 0.59733,0 0.59733,0.3733333 0,0.448 -0.59733,1.1199999 -2.16534,2.09066663 -5.152,6.0479998 -2.912,3.8826666 -6.42134,9.4826666 -3.43466,5.6 -5.824,12.543999 -2.38933,6.944 -2.38933,13.066667 0,6.421333 4.256,6.421333 9.03467,0 19.78667,-18.666666 8.81066,-15.157333 8.81066,-27.4773327 0,-2.3146666 -1.71733,-2.3146666 z"
         style=""
         id="path5759" />
      <path
         d="m 277.37041,46.416996 q -0.74667,0.746667 -1.86667,0.896 -4.55466,0.597334 -13.888,0.597334 l -8.73599,-0.149334 q -1.12,-0.07467 -1.12,-1.045333 l 0.14933,-0.746667 q 1.04533,-2.538666 2.98667,-6.943999 2.01599,-4.405334 8.36266,-16.202667 6.34667,-11.871999 12.992,-21.6533322 6.79467,-9.8559996 8.88533,-11.4986658 0.97067,-0.821334 1.792,-0.821334 0.59734,0 0.59734,0.672 0,1.1946669 -2.016,5.3013334 -2.016,4.1066665 -3.50934,6.6453331 -17.39733,31.3599985 -21.65333,42.5599985 -0.0747,0.224 -0.0747,0.448 0,1.269333 2.61334,1.269333 5.07733,0 9.408,-3.285333 6.42133,-5.152 11.49866,-11.722666 0.59734,-0.597333 1.19467,-0.597333 0.59733,0 0.59733,0.746666 0,0.746667 -0.82133,2.613333 -4.85333,10.528 -7.392,12.917333 z"
         style=""
         id="path5761" />
      <path
         d="m 305.82307,-11.524335 q 9.70666,0 15.38133,6.0479997 5.74933,6.04799983 5.74933,16.4266663 0,6.272 -3.06133,12.917333 -3.06133,6.570666 -8.13867,11.946666 -5.07733,5.376 -12.39466,8.810666 -7.31734,3.434667 -15.15734,3.434667 -1.49333,0 -2.912,-0.149333 -1.41866,-0.07467 -2.016,-0.149334 l -0.672,-0.149333 q -1.19466,-0.298667 -1.19466,-1.194667 l 0.224,-0.746666 q 0.74666,-1.792 2.16533,-4.928 1.344,-3.136 6.34667,-12.32 5.07733,-9.183999 10.82666,-17.770666 5.376,-8.0639995 8.512,-11.19999943 1.04534,-1.11999997 1.71734,-1.11999997 0.52266,0 0.52266,0.89599997 0,0.59733332 -0.0747,0.74666665 -0.672,2.91199988 -4.77867,10.97599978 -13.58933,24.042666 -17.024,33.450665 -0.0747,0.224 -0.0747,0.522667 0,0.746667 0.59734,0.821333 0.448,0.07467 1.344,0.07467 6.57066,0 13.51466,-6.346666 7.01867,-6.346667 11.57334,-15.829333 4.55466,-9.557333 4.55466,-18.1439996 0,-6.27199983 -3.584,-10.453333 -3.584,-4.2559999 -9.70666,-4.2559999 -3.136,0 -5.22667,1.7173333 -2.016,1.7173333 -2.016,5.0026665 0,2.61333324 1.568,5.3759998 0.14933,0.448 0.14933,0.896 0,0.5973333 -0.448,0.5973333 -0.224,0 -0.672,-0.224 -1.71733,-0.896 -3.808,-3.7333332 -2.09066,-2.8373332 -2.09066,-5.8986665 0,-2.3893332 1.792,-3.8079998 1.792,-1.4186669 3.88266,-1.7919999 2.09067,-0.448 4.62934,-0.448 z"
         style=""
         id="path5763" />
      <path
         d="m 351.04891,15.355664 q -4.62933,0.224 -10.304,0.224 h -0.896 q -10.528,19.114666 -12.544,25.909332 -0.29867,0.896 -0.29867,1.642667 0,2.24 3.95734,2.24 1.64266,0 3.584,-0.597333 1.94133,-0.672 4.704,-2.24 2.83733,-1.642667 6.34666,-5.152 3.50934,-3.509333 7.168,-8.512 0.448,-0.821333 1.344,-0.821333 0.59734,0 0.59734,0.597333 0,0.149334 -0.14934,0.597334 -3.584,9.183999 -9.10933,16.426666 -0.448,1.045333 -2.24,1.344 -6.12267,0.298666 -12.91733,0.298666 -7.76534,0 -12.544,-0.522666 -0.896,-0.07467 -0.896,-1.045334 0,-0.597333 0.29867,-1.194666 4.25599,-9.557333 16.05333,-29.045333 l -3.36,-0.07467 q -0.97067,0 -0.97067,-0.597334 0,-0.597333 0.59733,-1.045333 0.672,-0.522667 1.344,-0.522667 h 3.808 l 9.03467,-14.4853324 q 1.12,-2.0159999 1.12,-3.6586666 0,-1.1199999 -0.52267,-1.9413332 -0.448,-0.8213333 -0.97066,-1.12 l -0.52267,-0.2986666 q -0.672,-0.3733334 -0.672,-0.8213333 0,-0.2986667 0.224,-0.5226667 0.29867,-0.224 0.59733,-0.2986666 l 0.29867,-0.074667 q 7.69067,-0.4479999 15.97867,-0.4479999 6.86933,0 11.05066,0.373333 1.12,0 1.12,0.9706669 0,0.2239999 -0.224,0.8213333 -2.464,6.1973331 -5.00266,9.7066663 -0.37334,0.3733333 -0.82134,0.3733333 -0.672,0 -0.672,-0.97066661 0.37334,-1.41866662 0.37334,-3.06133319 0,-6.1226665 -6.12267,-6.1226665 h -0.29867 q -3.808,0 -5.45066,2.0906666 -3.808,4.7039998 -10.15467,16.2026661 -0.74667,1.2693328 -1.86667,3.2106668 h 11.2 q 0.74667,0 0.74667,0.448 0,0.448 -0.672,1.045333 -0.59733,0.597333 -1.344,0.672 z"
         style=""
         id="path5765" />
      <path
         d="m 379.96824,47.163663 q -3.73333,-6.048 -3.73333,-27.402666 l 0.0747,-4.554666 q 0,-0.448 0.224,-0.672 0.224,-0.224 0.448,-0.224 l 0.224,-0.07467 q 6.19733,-0.672 11.49866,-5.0026664 5.376,-4.4053332 5.376,-10.07999969 0,-2.23999991 -1.19466,-3.88266651 -1.12,-1.7173333 -3.06134,-2.5386666 -1.86666,-0.896 -3.88266,-1.2693333 -1.94134,-0.448 -3.88267,-0.448 -3.43467,0 -6.79467,1.12 -3.36,1.1199999 -5.89866,3.6586665 -2.53867,2.5386666 -2.53867,5.9733332 0,2.0906666 1.19467,4.1813331 0.29866,0.7466667 0.29866,0.9706667 0,0.448 -0.448,0.448 -0.672,0 -1.71733,-0.672 -4.62933,-2.7626666 -4.62933,-6.64533312 0,-5.07733318 6.19733,-7.98933308 6.272,-2.9119998 14.70933,-2.9119998 2.83734,0 5.52534,0.373333 2.76266,0.373334 5.89866,1.2693335 3.136,0.896 5.00267,2.9119999 1.94133,1.9413333 1.94133,4.7786665 0,3.8079999 -3.36,7.4666664 -3.28533,3.6586666 -7.31733,5.8986667 -4.032,2.24 -7.616,3.136 -0.52267,0.373333 -0.52267,0.821333 0,2.688 0.14934,6.122666 0.14933,3.36 0.59733,9.482667 0.52267,6.048 1.86667,10.975999 1.41866,4.853334 3.50933,6.794667 0.37333,0.373333 0.37333,0.672 0,0.597333 -1.86666,0.597333 -2.16534,0 -3.808,-0.821333 -1.64267,-0.821333 -2.24,-1.493333 -0.52267,-0.672 -0.59734,-0.970667 z m -16.94933,-12.768 q -1.568,3.584 -3.43467,6.496 -1.86666,2.912 -3.43466,4.554667 -1.568,1.642666 -2.912,2.762666 -1.344,1.12 -2.16533,1.493334 l -0.74667,0.373333 q -0.448,0.224 -0.896,0.224 -0.82133,0 -0.82133,-0.970667 l 0.224,-0.896 q 0.74666,-2.090666 5.07733,-10.527999 4.40533,-8.512 8.288,-15.381333 3.584,-6.421333 6.86933,-11.946666 3.36,-5.6000003 4.85333,-7.9146669 l 1.568,-2.38933323 q 1.86667,-2.53866657 3.808,-3.88266657 1.94134,-1.3439999 3.136,-1.3439999 0.82134,0 0.82134,0.5973333 0,0.448 -0.59734,1.5679999 -0.52266,0.896 -4.18133,7.4666665 -3.584,6.4959999 -8.58667,15.9039999 -4.928,9.333333 -6.86933,13.813332 z"
         style=""
         id="path5767" />
    </g>
  </g>
</svg>
