<?xml version="1.0" encoding="UTF-8" standalone="no"?>
<svg
   xmlns:dc="http://purl.org/dc/elements/1.1/"
   xmlns:cc="http://creativecommons.org/ns#"
   xmlns:rdf="http://www.w3.org/1999/02/22-rdf-syntax-ns#"
   xmlns:svg="http://www.w3.org/2000/svg"
   xmlns="http://www.w3.org/2000/svg"
   xmlns:xlink="http://www.w3.org/1999/xlink"
   xmlns:sodipodi="http://sodipodi.sourceforge.net/DTD/sodipodi-0.dtd"
   xmlns:inkscape="http://www.inkscape.org/namespaces/inkscape"
   width="500"
   height="350"
   viewBox="0 0 274.55002 192.17576"
   version="1.1"
   id="svg46"
   sodipodi:docname="app3.svg"
   inkscape:version="0.92.2 5c3e80d, 2017-08-06"
   inkscape:export-filename="/mnt/storage/Nextcloud/Stage/projects/Arduino/com.athom.homeyduino/assets/images/small.png"
   inkscape:export-xdpi="48"
   inkscape:export-ydpi="48">
  <metadata
     id="metadata52">
    <rdf:RDF>
      <cc:Work
         rdf:about="">
        <dc:format>image/svg+xml</dc:format>
        <dc:type
           rdf:resource="http://purl.org/dc/dcmitype/StillImage" />
        <dc:title></dc:title>
      </cc:Work>
    </rdf:RDF>
  </metadata>
  <defs
     id="defs50">
    <linearGradient
       id="linearGradient1601"
       inkscape:collect="always">
      <stop
         id="stop1597"
         offset="0"
         style="stop-color:#c8c8c8;stop-opacity:1" />
      <stop
         id="stop1599"
         offset="1"
         style="stop-color:#e6e6e6;stop-opacity:0.89411765" />
    </linearGradient>
    <linearGradient
       gradientTransform="matrix(1,0,0,-1,16.8,702.696)"
       y2="16.070999"
       x2="1354.901"
       y1="16.070999"
       x1="-16.299999"
       gradientUnits="userSpaceOnUse"
       id="a-6">
      <stop
         id="stop1575"
         stop-opacity="0"
         stop-color="#fff"
         offset=".117" />
      <stop
         id="stop1577"
         stop-opacity=".153"
         stop-color="#c0d1d3"
         offset=".252" />
      <stop
         id="stop1579"
         stop-opacity=".306"
         stop-color="#91b3b7"
         offset=".387" />
      <stop
         id="stop1581"
         stop-opacity=".457"
         stop-color="#6d9fa3"
         offset=".52" />
      <stop
         id="stop1583"
         stop-opacity=".604"
         stop-color="#4d9195"
         offset=".65" />
      <stop
         id="stop1585"
         stop-opacity=".746"
         stop-color="#30888b"
         offset=".776" />
      <stop
         id="stop1587"
         stop-opacity=".881"
         stop-color="#148386"
         offset=".895" />
      <stop
         id="stop1589"
         stop-color="#008184"
         offset="1" />
    </linearGradient>
    <linearGradient
       gradientTransform="matrix(1,0,0,-1,16.8,702.696)"
       y2="16.070999"
       x2="1354.901"
       y1="16.070999"
       x1="-16.299999"
       gradientUnits="userSpaceOnUse"
       id="a">
      <stop
         id="stop1558"
         stop-opacity="0"
         stop-color="#fff"
         offset=".117" />
      <stop
         id="stop1560"
         stop-opacity=".153"
         stop-color="#c0d1d3"
         offset=".252" />
      <stop
         id="stop1562"
         stop-opacity=".306"
         stop-color="#91b3b7"
         offset=".387" />
      <stop
         id="stop1564"
         stop-opacity=".457"
         stop-color="#6d9fa3"
         offset=".52" />
      <stop
         id="stop1566"
         stop-opacity=".604"
         stop-color="#4d9195"
         offset=".65" />
      <stop
         id="stop1568"
         stop-opacity=".746"
         stop-color="#30888b"
         offset=".776" />
      <stop
         id="stop1570"
         stop-opacity=".881"
         stop-color="#148386"
         offset=".895" />
      <stop
         id="stop1572"
         stop-color="#008184"
         offset="1" />
    </linearGradient>
    <linearGradient
       inkscape:collect="always"
       id="linearGradient1548-5">
      <stop
         style="stop-color:#ffffff;stop-opacity:1"
         offset="0"
         id="stop1544" />
      <stop
         style="stop-color:#e6e6e6;stop-opacity:0.89411765"
         offset="1"
         id="stop1546" />
    </linearGradient>
    <linearGradient
       inkscape:collect="always"
       xlink:href="#linearGradient1548-5"
       id="linearGradient1537"
       x1="225.39859"
       y1="97.658401"
       x2="137.78397"
       y2="21.677265"
       gradientUnits="userSpaceOnUse"
       gradientTransform="translate(-40.633401)" />
    <linearGradient
       inkscape:collect="always"
       xlink:href="#linearGradient1601"
       id="linearGradient1556"
       x1="204.28352"
       y1="180.19905"
       x2="223.02599"
       y2="110.85439"
       gradientUnits="userSpaceOnUse"
       gradientTransform="translate(-40.633401)" />
  </defs>
  <sodipodi:namedview
     pagecolor="#ffffff"
     bordercolor="#666666"
     borderopacity="1"
     objecttolerance="10"
     gridtolerance="10"
     guidetolerance="10"
     inkscape:pageopacity="1"
     inkscape:pageshadow="2"
     inkscape:window-width="1600"
     inkscape:window-height="835"
     id="namedview48"
     showgrid="false"
     showguides="false"
     inkscape:zoom="1.0680141"
     inkscape:cx="208.58839"
     inkscape:cy="130.81292"
     inkscape:window-x="0"
     inkscape:window-y="0"
     inkscape:window-maximized="1"
     inkscape:current-layer="svg46" />
  <linearGradient
     id="a-6-7"
     gradientUnits="userSpaceOnUse"
     x1="-16.299999"
     y1="16.070999"
     x2="1354.901"
     y2="16.070999"
     gradientTransform="matrix(1,0,0,-1,16.8,702.696)">
    <stop
       offset=".117"
       stop-color="#fff"
       stop-opacity="0"
       id="stop4" />
    <stop
       offset=".252"
       stop-color="#c0d1d3"
       stop-opacity=".153"
       id="stop6" />
    <stop
       offset=".387"
       stop-color="#91b3b7"
       stop-opacity=".306"
       id="stop8" />
    <stop
       offset=".52"
       stop-color="#6d9fa3"
       stop-opacity=".457"
       id="stop10" />
    <stop
       offset=".65"
       stop-color="#4d9195"
       stop-opacity=".604"
       id="stop12" />
    <stop
       offset=".776"
       stop-color="#30888b"
       stop-opacity=".746"
       id="stop14" />
    <stop
       offset=".895"
       stop-color="#148386"
       stop-opacity=".881"
       id="stop16" />
    <stop
       offset="1"
       stop-color="#008184"
       id="stop18" />
  </linearGradient>
  <linearGradient
     id="b"
     gradientUnits="userSpaceOnUse"
     x1="-16.799999"
     y1="16.070999"
     x2="1355.401"
     y2="16.070999"
     gradientTransform="matrix(1,0,0,-1,16.8,702.696)">
    <stop
       offset="0"
       stop-color="#fff"
       stop-opacity="0"
       id="stop21" />
    <stop
       offset=".153"
       stop-color="#c0d1d3"
       stop-opacity=".153"
       id="stop23" />
    <stop
       offset=".306"
       stop-color="#91b3b7"
       stop-opacity=".306"
       id="stop25" />
    <stop
       offset=".457"
       stop-color="#6d9fa3"
       stop-opacity=".457"
       id="stop27" />
    <stop
       offset=".604"
       stop-color="#4d9195"
       stop-opacity=".604"
       id="stop29" />
    <stop
       offset=".746"
       stop-color="#30888b"
       stop-opacity=".746"
       id="stop31" />
    <stop
       offset=".881"
       stop-color="#148386"
       stop-opacity=".881"
       id="stop33" />
    <stop
       offset="1"
       stop-color="#008184"
       id="stop35" />
  </linearGradient>
  <path
     inkscape:connector-curvature="0"
     id="path1084"
     d="M 0.755112,96.087887 V 0.20138683 H 96.641599 192.5281 V 96.087887 191.97437 H 96.641599 0.755112 Z"
     style="fill:#fefefe;stroke-width:0.1872783" />
  <g
     id="g1778">
    <path
       style="fill:url(#linearGradient1537);fill-opacity:1;stroke-width:0.1872783"
       d="m 94.019699,184.94019 c -2.43513,-0.5249 -5.25945,-2.36623 -6.57333,-4.28554 -0.3692,-0.53933 -0.60029,-0.67697 -1.29235,-0.76974 -3.63566,-0.48738 -10.31358,-1.80121 -11.53244,-2.26893 -0.13839,-0.0531 -0.47583,0.41974 -0.84855,1.18903 -0.8404,1.73459 -3.15182,4.05754 -4.86071,4.88497 -3.48104,1.68548 -7.64548,1.51618 -10.877317,-0.44221 -2.176808,-1.31907 -4.096529,-3.80804 -4.897153,-6.3493 -0.555474,-1.76316 -0.590877,-5.46476 -0.06713,-7.01997 0.336334,-0.99867 0.336334,-1.03382 0,-1.27191 -0.190236,-0.13467 -1.647162,-1.09195 -3.237635,-2.12729 -12.943803,-8.426 -23.707473,-20.65147 -30.46946,-34.6075 -3.572586,-7.37342 -5.98367,-14.76859 -7.453748,-22.86172 C 10.391201,100.6494 10.243217,89.928265 11.526595,81.241749 13.587563,67.292116 19.264683,53.694122 27.729264,42.432645 42.677934,22.544599 65.112339,10.181637 89.779649,8.2384777 c 3.62136,-0.2852774 13.402771,-0.1165932 16.600431,0.2862837 10.54021,1.3279495 19.55661,4.0586376 28.74722,8.7063346 25.59809,12.944936 43.16777,37.62879 46.89656,65.885523 0.9924,7.52043 0.96241,16.375994 -0.0795,23.485051 -2.1262,14.50661 -7.85868,28.29535 -16.51598,39.72703 -6.54429,8.64151 -15.51856,16.72085 -24.39538,21.96265 -1.26261,0.74557 -1.51941,0.97463 -1.44857,1.29203 0.0474,0.21219 0.22268,0.88808 0.38959,1.50199 0.62731,2.3073 0.28311,5.39747 -0.86542,7.76962 -0.81473,1.68271 -3.15224,4.01968 -4.83612,4.83499 -3.47749,1.68377 -7.64574,1.51599 -10.86957,-0.4375 -1.39161,-0.84326 -2.95435,-2.44363 -3.74243,-3.83255 -0.3515,-0.61948 -0.72335,-1.24485 -0.82635,-1.3897 -0.15797,-0.22213 -0.62709,-0.16306 -2.99646,0.37729 -2.85611,0.65136 -8.37367,1.58104 -9.38333,1.58104 -0.41244,0 -0.63675,0.13789 -0.87191,0.53598 -0.17413,0.29479 -0.86261,1.04674 -1.52995,1.671 -2.67372,2.50113 -6.414631,3.52453 -10.032741,2.74465 z"
       id="path1082"
       inkscape:connector-curvature="0" />
    <path
       style="fill:url(#linearGradient1556);fill-opacity:1;stroke:none;stroke-width:0.1872783"
       d="m 95.049739,184.84286 c -3.07328,-0.44805 -6.52986,-2.63952 -7.68819,-4.87433 -0.22122,-0.42681 -0.4091,-0.50421 -1.4935,-0.61531 -1.93521,-0.19827 -5.34806,-0.81652 -8.42247,-1.52577 -1.54505,-0.35644 -2.90171,-0.64806 -3.01479,-0.64806 -0.1131,0 -0.51993,0.63596 -0.90408,1.41324 -2.77233,5.60942 -9.83256,7.69394 -15.183522,4.4829 -2.405899,-1.44374 -4.13284,-3.83206 -4.867369,-6.73142 -0.390591,-1.54176 -0.34342,-3.83851 0.111702,-5.43855 0.684898,-2.4078 0.72659,-2.20252 -0.610892,-3.00735 -7.225732,-4.3481 -14.266064,-10.21338 -19.529042,-16.26959 -1.842332,-2.12002 -4.488978,-5.52434 -4.379737,-5.63357 0.04021,-0.0402 1.039318,0.51693 2.220219,1.2381 1.180915,0.72117 3.706202,2.09033 5.611751,3.04259 19.610456,9.79986 41.65925,12.24691 62.5207,6.93877 13.030111,-3.31548 24.688971,-9.31374 35.425861,-18.22594 2.79676,-2.32146 8.69703,-8.21917 10.55149,-10.54692 0.79946,-1.00349 1.59672,-1.89915 1.77168,-1.99036 0.17496,-0.0912 1.58224,-0.52229 3.12729,-0.95794 3.49296,-0.98492 8.25366,-2.63241 11.33034,-3.92097 9.38908,-3.9323 16.60563,-9.79728 19.19602,-15.60088 0.51563,-1.15521 0.84276,-1.57018 0.84276,-1.06903 0,0.48777 -0.80806,5.34361 -1.22892,7.38498 -3.20244,15.53312 -11.04429,30.26276 -22.26511,41.82138 -5.0267,5.17804 -10.09172,9.25728 -16.37762,13.19014 -1.29779,0.81199 -2.43614,1.55181 -2.52969,1.64405 -0.10165,0.10024 0.01,0.75473 0.27653,1.62696 0.34074,1.11335 0.44489,1.88099 0.43941,3.2384 -0.0124,3.0822 -0.97936,5.3983 -3.16678,7.58574 -2.19143,2.19142 -4.51242,3.15957 -7.58575,3.16422 -4.13129,0.006 -7.53646,-2.06413 -9.45755,-5.75026 -0.47428,-0.91003 -0.86327,-1.43812 -1.06025,-1.43939 -0.17112,-10e-4 -1.22457,0.21466 -2.34098,0.4795 -2.09615,0.49726 -7.53459,1.44973 -9.53293,1.66957 -1.0547,0.11603 -1.16077,0.17163 -1.48855,0.78028 -0.46442,0.86236 -2.2517,2.50347 -3.49828,3.21217 -1.953831,1.11079 -4.670061,1.64313 -6.799751,1.33265 z M 85.030359,129.9783 c -17.91689,-0.9269 -34.245186,-3.7136 -46.632313,-7.95857 -15.610157,-5.34951 -25.049358,-12.93879 -26.889803,-21.61987 -0.301881,-1.423964 -0.377299,-8.993941 -0.0896,-8.993941 0.09677,0 0.394966,0.71805 0.662647,1.595658 1.551212,5.0856 5.800016,9.868383 12.177254,13.707653 14.867717,8.95077 41.944315,14.28696 72.476695,14.28351 18.019481,-0.002 34.726111,-1.91462 50.003311,-5.72442 3.22875,-0.80518 8.25179,-2.28374 8.93052,-2.62874 1.16778,-0.59359 4.74132,-8.75179 6.79899,-15.52167 2.39206,-7.870084 3.58853,-15.511789 3.78259,-24.158905 0.2625,-11.696066 -1.59085,-22.597881 -5.6792,-33.406458 -0.56021,-1.48105 -0.98299,-2.728382 -0.93952,-2.771849 0.0435,-0.04345 0.63075,0.536242 1.30508,1.288242 4.94856,5.518456 9.62709,12.566587 12.96611,19.533249 5.49966,11.474661 8.21868,23.304945 8.45796,36.800184 0.0722,4.07 0.0387,4.797023 -0.29635,6.435887 -1.79958,8.80267 -12.01368,16.59183 -28.96394,22.08756 -1.75391,0.56867 -3.52369,1.09323 -3.93284,1.16568 -0.40914,0.0724 -2.05016,0.45341 -3.64671,0.84657 -9.5831,2.35993 -19.54534,3.82616 -32.49279,4.78227 -4.76358,0.35176 -22.946551,0.51929 -27.998091,0.25796 z"
       id="path1050"
       inkscape:connector-curvature="0" />
    <path
       style="fill:#338484;fill-opacity:1;stroke-width:0.1872783"
       d="m 94.757169,184.66955 c -2.57007,-0.40475 -5.45482,-2.14342 -6.81655,-4.10839 -0.75734,-1.09286 -0.57229,-1.18669 1.88139,-0.95402 2.658,0.25205 10.628601,0.24832 13.346251,-0.006 1.16909,-0.10951 2.17671,-0.14803 2.23913,-0.0856 0.42057,0.42057 -1.83747,2.84249 -3.59799,3.85911 -1.963771,1.13398 -4.785331,1.65216 -7.052231,1.29515 z m -33.27224,-0.46937 c -1.53257,-0.333 -3.596389,-1.43376 -4.8692,-2.59704 -0.783713,-0.71628 -1.196443,-1.30968 -1.761352,-2.53244 -1.064168,-2.30338 -1.336014,-3.39705 -1.328983,-5.34654 0.0066,-1.80577 0.552105,-3.90364 1.4174,-5.45007 0.392184,-0.70091 0.466037,-0.74253 1.413961,-0.7969 2.001107,-0.11478 6.916904,1.48848 12.193104,3.97671 1.59655,0.75292 3.21969,1.50546 3.60697,1.67229 0.38728,0.16684 1.08255,0.65214 1.54505,1.07845 1.1367,1.04779 1.12102,1.52198 -0.13151,3.97397 -2.45339,4.8028 -7.08163,7.10883 -12.08544,6.02157 z m 65.360131,0 c -1.65856,-0.36038 -3.70804,-1.48888 -4.92089,-2.70959 -1.08023,-1.08722 -3.00751,-4.40622 -3.24193,-5.58294 -0.10729,-0.53863 -0.0303,-0.7166 0.61137,-1.4127 1.35642,-1.47154 6.60444,-4.14712 11.42678,-5.82566 2.5268,-0.87953 5.39915,-1.60293 6.36457,-1.60293 0.7087,0 0.80792,0.0659 1.32383,0.87942 0.30675,0.48368 0.55771,0.99199 0.55771,1.12957 0,0.13759 0.16969,0.75387 0.37708,1.3695 2.61879,7.77374 -4.4127,15.51227 -12.49852,13.75533 z M 86.528579,129.87176 c -21.79443,-1.15161 -38.913715,-4.28215 -52.344283,-9.57201 -8.859855,-3.48961 -15.752957,-8.1206 -19.421464,-13.04792 -2.489158,-3.34328 -3.298713,-5.88995 -3.463973,-10.896836 -0.140661,-4.261732 0.01837,-4.708132 0.849529,-2.384584 2.427772,6.78702 9.864999,12.95981 21.00587,17.43456 13.785212,5.53686 34.981351,9.24453 55.528011,9.71307 10.38266,0.23675 29.529311,-0.66546 38.672981,-1.82232 10.16771,-1.28641 22.95216,-4.16012 28.94158,-6.50551 1.02614,-0.40182 2.79272,-1.08881 3.92577,-1.52664 4.07476,-1.5746 9.22833,-4.34623 12.41298,-6.67578 1.85301,-1.35549 5.14067,-4.672705 6.39977,-6.457328 1.25751,-1.782358 1.7796,-2.816952 2.43263,-4.820546 0.29097,-0.892689 0.60202,-1.623081 0.69123,-1.623081 0.25717,0 0.30527,6.569054 0.0597,8.146612 -1.3939,8.953013 -11.40893,16.950963 -28.17647,22.501523 -11.55278,3.82433 -29.56752,6.82165 -45.97682,7.6497 -4.96442,0.25051 -15.726931,0.19409 -21.537001,-0.11291 z"
       id="path1034"
       inkscape:connector-curvature="0" />
  </g>
  <text
     xml:space="preserve"
     style="font-style:normal;font-variant:normal;font-weight:normal;font-stretch:normal;font-size:17.12509727px;line-height:5.73384953px;font-family:'Didact Gothic';-inkscape-font-specification:'Didact Gothic';letter-spacing:0px;word-spacing:0px;fill:#000000;fill-opacity:1;stroke:none;stroke-width:0.22935399"
     x="174.3969"
     y="178.90715"
     id="text1613"><tspan
       sodipodi:role="line"
       id="tspan1611"
       x="174.3969"
       y="178.90715"
       style="font-style:normal;font-variant:normal;font-weight:normal;font-stretch:normal;font-family:'Didact Gothic';-inkscape-font-specification:'Didact Gothic';stroke-width:0.22935399">Homeyduino</tspan></text>
  <path
     style="opacity:1;fill:#338484;fill-opacity:1;fill-rule:nonzero;stroke:none;stroke-width:0.00594287;stroke-miterlimit:4;stroke-dasharray:none;stroke-dashoffset:0;stroke-opacity:1"
     d="m 68.441864,54.117477 c -0.457503,0 -0.913304,0.01036 -1.367018,0.03168 -0.453698,0.02117 -0.905339,0.0527 -1.354655,0.09459 -0.449318,0.04204 -0.896221,0.0943 -1.34049,0.156947 -0.444269,0.06261 -0.885903,0.135304 -1.324532,0.218322 -0.438628,0.0829 -0.874252,0.176014 -1.306633,0.279121 -0.432322,0.103032 -0.861507,0.21622 -1.286989,0.339238 -0.425484,0.123017 -0.847266,0.255968 -1.265214,0.398659 -0.417978,0.142705 -0.832121,0.295137 -1.241972,0.457265 -0.409836,0.162129 -0.815468,0.333969 -1.216554,0.515297 -0.401146,0.181328 -0.797659,0.372101 -1.189405,0.572379 -0.391746,0.200291 -0.778769,0.410013 -1.160523,0.629031 -0.381798,0.219019 -0.758399,0.447348 -1.129598,0.684856 -0.371199,0.237493 -0.736846,0.484224 -1.096852,0.739984 -0.359948,0.255746 -0.714167,0.520522 -1.062317,0.794298 -0.348105,0.273777 -0.690096,0.556495 -1.025811,0.848035 -0.3357,0.291556 -0.665019,0.592009 -0.987618,0.901106 -0.326491,0.312163 -0.643923,0.630941 -0.951941,0.955983 -0.308032,0.325041 -0.606663,0.656314 -0.895998,0.993628 -0.289291,0.337327 -0.569225,0.680652 -0.839582,1.02966 -0.270313,0.349007 -0.531137,0.70373 -0.782249,1.063811 -0.251097,0.360096 -0.492483,0.725565 -0.724115,1.096142 -0.231615,0.370562 -0.453432,0.746142 -0.6653,1.126594 -0.211809,0.38045 -0.413773,0.765697 -0.605597,1.15543 -0.191869,0.389747 -0.373597,0.783994 -0.5452,1.182417 -0.171558,0.398437 -0.332827,0.801153 -0.483883,1.207672 -0.151011,0.406535 -0.291689,0.816933 -0.421916,1.230958 -0.130271,0.414011 -0.250135,0.831574 -0.35931,1.252483 -0.109103,0.420923 -0.207694,0.845207 -0.295582,1.272423 -0.08779,0.427215 -0.164986,0.857331 -0.231291,1.290246 -0.06632,0.432914 -0.121685,0.868567 -0.166199,1.306589 -0.04441,0.438007 -0.07787,0.878412 -0.10022,1.320934 -0.02221,0.442522 -0.03375,0.887146 -0.03375,1.333576 0,0.445868 0.01184,0.890077 0.03375,1.33217 0.0222,0.442093 0.05581,0.882083 0.10022,1.31978 0.04441,0.43771 0.09992,0.873082 0.166199,1.305774 0.06632,0.432693 0.143298,0.862706 0.231202,1.289788 0.08778,0.427082 0.186405,0.851218 0.295581,1.272067 0.109103,0.420835 0.228745,0.838398 0.358927,1.252379 0.130123,0.413981 0.270875,0.824438 0.421826,1.230943 0.150923,0.406535 0.312192,0.809131 0.483661,1.207554 0.171456,0.398452 0.353006,0.792685 0.544697,1.182432 0.191676,0.389733 0.393507,0.77501 0.605183,1.15543 0.211676,0.380421 0.433166,0.755987 0.66456,1.126475 0.231379,0.370488 0.472588,0.735958 0.723419,1.095905 0.250875,0.359948 0.511329,0.714464 0.78136,1.063235 0.269987,0.348786 0.549596,0.691843 0.838516,1.028846 0.288966,0.337002 0.58736,0.667861 0.894977,0.992473 0.307618,0.324611 0.624428,0.642888 0.950417,0.954488 0.322924,0.30904 0.652525,0.6094 0.988417,0.90097 0.335936,0.29157 0.678253,0.57444 1.026536,0.84827 0.348297,0.27386 0.702605,0.53878 1.062656,0.79466 0.360082,0.25588 0.725966,0.50266 1.097165,0.74034 0.371242,0.23765 0.747859,0.4661 1.129598,0.6853 0.381798,0.21922 0.768644,0.42923 1.160345,0.62972 0.391642,0.20052 0.788214,0.39153 1.189212,0.5731 0.400998,0.18156 0.806541,0.3536 1.216243,0.51597 0.409747,0.16236 0.823699,0.31504 1.241499,0.45796 0.4178,0.143 0.839493,0.27612 1.264799,0.39936 0.425246,0.12316 0.854149,0.23661 1.286293,0.33993 0.43216,0.10333 0.86768,0.19657 1.306116,0.27972 0.438391,0.0832 0.879759,0.15617 1.323835,0.2189 0.444047,0.0628 0.890729,0.11517 1.339809,0.15716 0.44908,0.0421 0.900573,0.0738 1.354064,0.095 0.453521,0.0212 0.909174,0.0317 1.366499,0.0317 0.420391,6e-5 0.840782,-0.009 1.260802,-0.0265 0.9924,-0.0419 1.982105,-0.13352 2.965385,-0.27426 0.36763,-0.0524 0.731338,-0.11147 1.091375,-0.17685 0.360052,-0.0654 0.716343,-0.13708 1.068801,-0.21497 0.352457,-0.0779 0.701065,-0.1618 1.045987,-0.25157 0.344908,-0.0897 0.686114,-0.1854 1.023531,-0.28653 0.337418,-0.10112 0.671089,-0.20791 1.001045,-0.31991 0.329926,-0.11192 0.656092,-0.2292 0.978558,-0.35151 0.322465,-0.12228 0.641185,-0.24968 0.956205,-0.38176 0.315063,-0.13204 0.62647,-0.2689 0.934132,-0.41022 0.307602,-0.14138 0.611564,-0.2872 0.911868,-0.43725 0.300245,-0.15003 0.596804,-0.30424 0.889752,-0.46246 0.292887,-0.15822 0.582134,-0.32048 0.867708,-0.48634 0.28559,-0.16586 0.567508,-0.33536 0.84583,-0.50833 0.556642,-0.34595 1.098644,-0.70561 1.626271,-1.0768 0.527569,-0.37117 1.040792,-0.7539 1.539583,-1.14604 0.498834,-0.39215 0.983324,-0.79364 1.453558,-1.20247 0.470279,-0.408841 0.926212,-0.824968 1.368083,-1.246232 0.441901,-0.421265 0.869663,-0.847754 1.283437,-1.277175 0.413773,-0.429406 0.813617,-0.861817 1.199442,-1.295102 0.385868,-0.433299 0.757807,-0.867443 1.115948,-1.300327 0.358158,-0.432915 0.702458,-0.864571 1.033124,-1.292807 0.330652,-0.428237 0.647714,-0.853098 0.951113,-1.272408 0.303443,-0.419311 0.593192,-0.833069 0.869619,-1.239175 0.275493,0.406106 0.564502,0.819924 0.867161,1.239175 0.302614,0.41925 0.618965,0.843934 0.949025,1.272067 0.330014,0.428133 0.673768,0.8597 1.03136,1.292452 0.357595,0.432752 0.728926,0.866746 1.114346,1.299854 0.38541,0.433107 0.78478,0.86534 1.19819,1.294539 0.41335,0.429213 0.84083,0.855318 1.28246,1.276361 0.44164,0.421026 0.89734,0.836917 1.3674,1.245538 0.47004,0.40861 0.95439,0.80997 1.45308,1.20187 0.4987,0.39192 1.01184,0.7744 1.5394,1.14536 0.52757,0.37096 1.0695,0.73047 1.62613,1.07622 0.27832,0.17287 0.56034,0.34233 0.84597,0.5081 0.28558,0.16578 0.57487,0.32786 0.86782,0.48599 0.29297,0.15814 0.58967,0.31239 0.88997,0.46236 0.30035,0.14997 0.6043,0.29572 0.912,0.43699 0.30771,0.14123 0.6192,0.27809 0.93432,0.41012 0.31516,0.13205 0.63388,0.25926 0.95648,0.38152 0.32256,0.12228 0.64887,0.23955 0.97888,0.35153 0.33006,0.11191 0.66386,0.21863 1.00141,0.31978 0.33756,0.10111 0.67882,0.19675 1.02386,0.28654 0.34506,0.0897 0.69395,0.17381 1.04654,0.25168 0.35264,0.0779 0.70899,0.14962 1.06917,0.21508 0.36018,0.0654 0.72417,0.12464 1.09198,0.17709 0.35098,0.0523 0.70334,0.0977 1.0564,0.13649 0.35301,0.0388 0.70667,0.0709 1.06001,0.0965 0.35328,0.0256 0.70634,0.0447 1.05815,0.0573 0.35181,0.0133 0.70241,0.0188 1.05094,0.0188 0.45736,0 0.91297,-0.0104 1.36646,-0.0317 0.45348,-0.0212 0.90492,-0.0529 1.35397,-0.095 0.44903,-0.0421 0.89562,-0.0946 1.33956,-0.15741 0.44399,-0.0627 0.88531,-0.13575 1.3236,-0.21902 0.43836,-0.0832 0.87375,-0.17655 1.30579,-0.27993 0.43206,-0.10333 0.86078,-0.21686 1.28599,-0.34017 0.42515,-0.12332 0.84672,-0.25646 1.26442,-0.39948 0.4177,-0.143 0.83153,-0.29586 1.24113,-0.4583 0.40962,-0.16244 0.81505,-0.33447 1.21601,-0.51609 0.40091,-0.18165 0.79729,-0.37287 1.1889,-0.57343 0.39164,-0.20059 0.77858,-0.41058 1.16029,-0.62985 0.38175,-0.21927 0.75841,-0.44782 1.12961,-0.68554 0.37124,-0.23771 0.73707,-0.48464 1.09717,-0.74056 0.36014,-0.25592 0.71462,-0.52089 1.063,-0.79477 0.34843,-0.27387 0.69079,-0.5567 1.02687,-0.84827 0.33613,-0.29159 0.66596,-0.59194 0.98916,-0.90099 0.32632,-0.3116 0.64345,-0.629862 0.9512,-0.954473 0.3078,-0.324612 0.60621,-0.655471 0.89522,-0.992473 0.28896,-0.337002 0.56844,-0.68006 0.83842,-1.028846 0.26994,-0.348786 0.5304,-0.703286 0.78108,-1.063234 0.2507,-0.359948 0.49171,-0.725418 0.72287,-1.095906 0.23116,-0.370487 0.45246,-0.746053 0.66387,-1.126489 0.2114,-0.380421 0.41275,-0.765698 0.60411,-1.15543 0.19141,-0.389733 0.37273,-0.783981 0.54382,-1.182418 0.17109,-0.398437 0.3319,-0.801034 0.4825,-1.207554 0.15054,-0.40652 0.29086,-0.816962 0.42067,-1.230943 0.12983,-0.413995 0.2492,-0.831543 0.35801,-1.252379 0.10881,-0.420849 0.207,-0.845 0.29451,-1.272067 0.0875,-0.427082 0.16434,-0.857095 0.23038,-1.289788 0.066,-0.432706 0.12124,-0.868064 0.16548,-1.305774 0.0444,-0.437697 0.0776,-0.877687 0.0999,-1.319779 0.0222,-0.442093 0.0333,-0.886318 0.0333,-1.332186 0,-0.44643 -0.0104,-0.891039 -0.0338,-1.333561 -0.0223,-0.442522 -0.0557,-0.882927 -0.10008,-1.320949 -0.0444,-0.438022 -0.0996,-0.87366 -0.16585,-1.306574 -0.0662,-0.432914 -0.14316,-0.863046 -0.23084,-1.290246 -0.0876,-0.427216 -0.18614,-0.851514 -0.29512,-1.272423 -0.10895,-0.420924 -0.22857,-0.838472 -0.35857,-1.252497 -0.12997,-0.414011 -0.27044,-0.824424 -0.42127,-1.230943 -0.15077,-0.406535 -0.31197,-0.809235 -0.48329,-1.207673 -0.17136,-0.398437 -0.35291,-0.792685 -0.5445,-1.182417 -0.19158,-0.389747 -0.39322,-0.77498 -0.60482,-1.15543 -0.21158,-0.380466 -0.43311,-0.756031 -0.66445,-1.126594 -0.23135,-0.370577 -0.47256,-0.736061 -0.72343,-1.096142 -0.25088,-0.360081 -0.51146,-0.714819 -0.78154,-1.063811 -0.27014,-0.349008 -0.5497,-0.692347 -0.8388,-1.02966 -0.2891,-0.337314 -0.58768,-0.668587 -0.89553,-0.993628 -0.30785,-0.325041 -0.62494,-0.64382 -0.95126,-0.955997 -0.32261,-0.308654 -0.65191,-0.608722 -0.98759,-0.899921 -0.3357,-0.291231 -0.67774,-0.573593 -1.02584,-0.847133 -0.3481,-0.273525 -0.70237,-0.538227 -1.06232,-0.793839 -0.35996,-0.255598 -0.72565,-0.502091 -1.0968,-0.739511 -0.3712,-0.237419 -0.74776,-0.465749 -1.12952,-0.684737 -0.38175,-0.219003 -0.76858,-0.428711 -1.16028,-0.629031 -0.3917,-0.200322 -0.78821,-0.391214 -1.18927,-0.572616 -0.40104,-0.181403 -0.80668,-0.353287 -1.21646,-0.515519 -0.4098,-0.162246 -0.82372,-0.314915 -1.24161,-0.457725 -0.41789,-0.142854 -0.83972,-0.275849 -1.26511,-0.399014 -0.42539,-0.123166 -0.85438,-0.236442 -1.28667,-0.339696 -0.43224,-0.103181 -0.86773,-0.196503 -1.30621,-0.279595 -0.43854,-0.08305 -0.88007,-0.155985 -1.32421,-0.218678 -0.44413,-0.06261 -0.8909,-0.115171 -1.34002,-0.157169 -0.44919,-0.04204 -0.90068,-0.07372 -1.35421,-0.09489 -0.45353,-0.02117 -0.90914,-0.03168 -1.36647,-0.03168 -0.34875,0 -0.69902,0.0059 -1.05028,0.01865 -0.35126,0.01184 -0.70338,0.03124 -1.05578,0.05611 -0.35246,0.02501 -0.70524,0.05625 -1.05761,0.09385 -0.35231,0.0376 -0.70427,0.08157 -1.05524,0.131752 -0.36777,0.05255 -0.73171,0.111619 -1.09184,0.177094 -0.36014,0.06543 -0.71657,0.137229 -1.06917,0.215199 -0.35254,0.07787 -0.70139,0.161892 -1.04644,0.251675 -0.34501,0.08986 -0.68622,0.1854 -1.02373,0.286552 -0.33751,0.101108 -0.67126,0.207797 -1.00128,0.319772 -0.33001,0.111914 -0.65627,0.229247 -0.97878,0.351524 -0.32257,0.122277 -0.64138,0.249587 -0.95648,0.381635 -0.31512,0.132048 -0.62652,0.268728 -0.93422,0.409998 -0.30767,0.141226 -0.61165,0.287026 -0.91196,0.437001 -0.3003,0.14996 -0.59695,0.304109 -0.88988,0.46224 -0.29291,0.158131 -0.58225,0.320215 -0.86782,0.485985 -0.28563,0.16577 -0.56755,0.335241 -0.84587,0.508117 -0.5566,0.345721 -1.09861,0.705151 -1.62615,1.076098 -0.52752,0.370932 -1.04055,0.753456 -1.53925,1.145349 -0.49864,0.391894 -0.98296,0.793173 -1.45295,1.201766 -0.47006,0.408592 -0.9258,0.824512 -1.36739,1.245539 -0.44163,0.421028 -0.8691,0.847147 -1.28252,1.276346 -0.4134,0.429199 -0.81277,0.861432 -1.19818,1.294539 -0.38537,0.433122 -0.756796,0.867102 -1.114435,1.299868 -0.35759,0.432768 -0.701446,0.86429 -1.031506,1.292453 -0.330001,0.428163 -0.646323,0.852994 -0.949026,1.272289 -0.302701,0.41931 -0.591711,0.833114 -0.867249,1.239293 -0.276327,-0.406168 -0.56621,-0.819957 -0.869607,-1.239282 C 95.538168,69.389505 95.221166,68.964717 94.89047,68.536525 94.559803,68.108333 94.215399,67.676647 93.857257,67.243836 93.499101,66.811025 93.127161,66.37703 92.741293,65.943863 92.355468,65.510697 91.955729,65.078464 91.541955,64.649206 91.128226,64.219963 90.70033,63.79371 90.258415,63.372623 89.816559,62.951552 89.36058,62.535602 88.890347,62.126966 88.420112,61.718329 87.935622,61.31702 87.436787,60.925096 86.937998,60.533158 86.424774,60.150591 85.897191,59.779614 85.369578,59.408638 84.827562,59.049267 84.270934,58.703516 83.992613,58.53064 83.71068,58.361184 83.425105,58.195414 c -0.28559,-0.16577 -0.574821,-0.327868 -0.867724,-0.485985 -0.292948,-0.158131 -0.589492,-0.312295 -0.889752,-0.462255 -0.30029,-0.149945 -0.604206,-0.295731 -0.911867,-0.436986 -0.307648,-0.141226 -0.619055,-0.277995 -0.934119,-0.410013 -0.315018,-0.132048 -0.633738,-0.25927 -0.956204,-0.381517 -0.322465,-0.122277 -0.648646,-0.239462 -0.978558,-0.351391 -0.329971,-0.111915 -0.663628,-0.218574 -1.001044,-0.319668 -0.337461,-0.101108 -0.678579,-0.196695 -1.023546,-0.286434 -0.344907,-0.08971 -0.693619,-0.173615 -1.046077,-0.251452 -0.352501,-0.07786 -0.708793,-0.14956 -1.068785,-0.214962 -0.360051,-0.06543 -0.723892,-0.124498 -1.091524,-0.176976 -0.349822,-0.05004 -0.700887,-0.09386 -1.052605,-0.131455 -0.351672,-0.0376 -0.703893,-0.06884 -1.056024,-0.09385 -0.352177,-0.02502 -0.704219,-0.04381 -1.055374,-0.05625 -0.35117,-0.01184 -0.701495,-0.0188 -1.050296,-0.0188 z m 56.220776,9.695513 c 0.31141,0 0.62096,0.0074 0.92853,0.02236 0.30757,0.0148 0.61313,0.03686 0.91649,0.06617 0.30335,0.02931 0.60453,0.06558 0.90331,0.108806 0.29877,0.04337 0.59513,0.09356 0.88891,0.150567 0.29382,0.057 0.58496,0.120797 0.87341,0.191231 0.28846,0.07032 0.57418,0.147296 0.85684,0.230714 0.28276,0.08334 0.56256,0.173038 0.83917,0.269054 0.2766,0.09607 0.55002,0.198293 0.8201,0.306581 0.27013,0.108214 0.53688,0.222512 0.8001,0.342702 0.26324,0.120204 0.52295,0.246316 0.77892,0.378052 0.25597,0.131752 0.50817,0.269159 0.7565,0.412086 0.24839,0.142855 0.49287,0.291348 0.73319,0.445098 0.24033,0.153779 0.47644,0.312843 0.70834,0.477074 0.23195,0.16423 0.45963,0.333642 0.68279,0.507997 0.22315,0.174341 0.44177,0.353657 0.65577,0.537753 0.21399,0.184098 0.42331,0.373005 0.62776,0.566488 0.20441,0.193482 0.40406,0.391538 0.59856,0.59405 0.19451,0.202512 0.38398,0.409392 0.56821,0.620564 0.18423,0.211188 0.36319,0.426682 0.53673,0.646175 0.17355,0.219477 0.34159,0.443054 0.50408,0.670481 0.16242,0.227441 0.31927,0.458747 0.47032,0.693768 0.15106,0.235035 0.29628,0.473757 0.43547,0.716017 0.13916,0.242245 0.27236,0.487969 0.39939,0.737082 0.12702,0.249129 0.24772,0.501618 0.36217,0.757246 0.11443,0.255612 0.22251,0.514348 0.32394,0.776119 0.10141,0.261756 0.19628,0.526517 0.28435,0.794062 0.0881,0.267558 0.16943,0.537886 0.24379,0.810863 0.0743,0.272992 0.14181,0.54859 0.202,0.826629 0.0602,0.278041 0.1134,0.558582 0.15911,0.841329 0.0457,0.282733 0.084,0.567775 0.11502,0.854875 0.0309,0.287085 0.0544,0.576197 0.0699,0.867264 0.0157,0.291068 0.0235,0.584044 0.0235,0.878739 0,0.294693 -0.008,0.58767 -0.0235,0.878737 -0.0157,0.291067 -0.0389,0.580298 -0.0699,0.867383 -0.0309,0.287086 -0.0692,0.572024 -0.11502,0.854771 -0.0457,0.282748 -0.0989,0.563275 -0.15911,0.841329 -0.0602,0.278041 -0.12775,0.553638 -0.20214,0.826615 -0.0744,0.272977 -0.15569,0.543304 -0.2438,0.810863 -0.0881,0.267559 -0.18288,0.532291 -0.28433,0.794076 -0.10141,0.261756 -0.20954,0.520596 -0.32395,0.776223 -0.11443,0.255628 -0.23518,0.508013 -0.36216,0.757127 -0.12702,0.249128 -0.26028,0.494956 -0.39949,0.737201 -0.13916,0.24226 -0.28434,0.480982 -0.43533,0.716017 -0.15105,0.235021 -0.30794,0.466327 -0.47038,0.693768 -0.16244,0.227442 -0.33052,0.450989 -0.50407,0.670481 -0.17349,0.219493 -0.35241,0.434884 -0.53659,0.646056 -0.18419,0.211187 -0.37374,0.418186 -0.56821,0.620683 -0.1945,0.202527 -0.39391,0.400568 -0.59832,0.594051 -0.20443,0.193497 -0.41373,0.382389 -0.62763,0.566487 -0.21395,0.184096 -0.43262,0.363412 -0.65568,0.537753 -0.2231,0.174355 -0.4507,0.343767 -0.68256,0.507997 -0.23185,0.164231 -0.46786,0.323295 -0.7081,0.477074 -0.24027,0.153765 -0.48468,0.30217 -0.73295,0.445098 -0.24824,0.143002 -0.50031,0.280349 -0.75619,0.4121 -0.25588,0.131752 -0.51545,0.257848 -0.77855,0.378039 -0.26309,0.120204 -0.52979,0.234428 -0.79973,0.342716 -0.26999,0.108213 -0.54322,0.210565 -0.81968,0.306567 -0.27642,0.09607 -0.55613,0.185799 -0.83866,0.269172 -0.28257,0.08334 -0.56803,0.160337 -0.85628,0.230728 -0.28827,0.07032 -0.57923,0.134119 -0.87281,0.191098 -0.29359,0.057 -0.58982,0.107326 -0.88836,0.150685 -0.29855,0.04337 -0.59949,0.07964 -0.90262,0.108807 -0.30307,0.02931 -0.60836,0.05137 -0.91565,0.06617 -0.3073,0.0148 -0.61662,0.0222 -0.92775,0.0222 -0.47573,0 -0.95792,-0.01851 -1.4423,-0.05373 -0.48441,-0.03524 -0.97112,-0.08719 -1.45625,-0.153927 -0.34634,-0.04959 -0.68849,-0.108362 -1.02641,-0.175703 -0.33792,-0.06736 -0.67164,-0.143299 -1.00113,-0.227471 -0.32952,-0.08408 -0.65485,-0.176399 -0.97592,-0.276353 -0.32108,-0.09992 -0.63799,-0.207545 -0.95066,-0.322317 -0.31265,-0.114728 -0.62101,-0.236767 -0.92519,-0.365425 -0.30418,-0.128642 -0.60421,-0.264051 -0.89992,-0.405602 -0.29573,-0.141522 -0.58718,-0.289306 -0.87447,-0.442788 -0.28726,-0.153499 -0.57029,-0.312725 -0.84908,-0.477192 -0.27878,-0.164453 -0.55322,-0.334116 -0.82347,-0.508561 -0.27027,-0.17446 -0.53638,-0.353701 -0.79812,-0.53719 -0.2618,-0.183476 -0.5192,-0.371228 -0.77243,-0.562771 -0.25324,-0.191529 -0.50236,-0.386742 -0.74708,-0.585362 -0.24472,-0.198619 -0.48512,-0.400554 -0.72128,-0.605286 -0.23621,-0.204733 -0.46802,-0.412308 -0.69567,-0.622193 -0.45524,-0.419755 -0.89334,-0.848879 -1.31434,-1.283407 -0.42096,-0.434543 -0.82488,-0.874519 -1.21148,-1.316094 -0.38661,-0.441559 -0.75601,-0.884733 -1.10817,-1.325567 -0.35218,-0.440834 -0.6871,-0.879329 -1.00476,-1.311682 -0.31765,-0.432337 -0.61795,-0.858515 -0.901,-1.274613 -0.28298,-0.416098 -0.54861,-0.822159 -0.79694,-1.214274 -0.24829,-0.392102 -0.47922,-0.770287 -0.6927,-1.13065 -0.21354,-0.360348 -0.40966,-0.702887 -0.5883,-1.023738 -0.17863,-0.320852 -0.33977,-0.619972 -0.48343,-0.893556 0.1436,-0.274162 0.3048,-0.573948 0.48343,-0.895303 0.17864,-0.321355 0.37476,-0.664353 0.5883,-1.025145 0.21348,-0.360777 0.44441,-0.739332 0.6927,-1.131804 0.24833,-0.392471 0.51404,-0.798783 0.79709,-1.215192 0.28303,-0.416408 0.58343,-0.842957 0.90108,-1.275546 0.31766,-0.432589 0.65256,-0.871233 1.00474,-1.312259 0.3522,-0.441013 0.72168,-0.884333 1.10833,-1.326027 0.38661,-0.441707 0.79047,-0.881801 1.21147,-1.316434 0.42101,-0.434631 0.85916,-0.863844 1.31444,-1.283643 0.22765,-0.2099 0.45955,-0.41746 0.69575,-0.622193 0.2362,-0.204748 0.47672,-0.406668 0.72143,-0.605287 0.24477,-0.198604 0.49371,-0.393847 0.74693,-0.585361 0.25329,-0.191513 0.51087,-0.379207 0.77268,-0.562668 0.26179,-0.183444 0.5278,-0.362641 0.79812,-0.537057 0.27031,-0.1744 0.54491,-0.344048 0.82375,-0.508457 0.27878,-0.164408 0.56177,-0.323634 0.84905,-0.477058 0.28732,-0.153439 0.57881,-0.301074 0.87459,-0.442566 0.29576,-0.141522 0.59577,-0.276797 0.90006,-0.405366 0.30423,-0.128642 0.61267,-0.25049 0.92537,-0.365188 0.31271,-0.114727 0.62967,-0.222246 0.95081,-0.322095 0.32111,-0.09992 0.64645,-0.191973 0.97599,-0.276012 0.3296,-0.08408 0.6634,-0.159997 1.00143,-0.227234 0.33796,-0.06721 0.68024,-0.12583 1.02662,-0.175363 0.48057,-0.06973 0.96492,-0.121537 1.4481,-0.156015 0.4832,-0.03449 0.96524,-0.05137 1.44107,-0.05137 z m -56.534996,0.0029 c 0.4762,0 0.959062,0.01688 1.442812,0.05196 0.483705,0.03508 0.968284,0.08838 1.447637,0.160767 0.346343,0.04929 0.688439,0.10777 1.026403,0.174888 0.337979,0.06706 0.671725,0.142855 1.001281,0.226776 0.329542,0.08393 0.654923,0.175895 0.976012,0.275657 0.321118,0.09978 0.637988,0.207234 0.950698,0.321858 0.31265,0.11458 0.621052,0.236427 0.92528,0.364952 0.304242,0.128494 0.604265,0.263798 0.900069,0.405261 0.29576,0.141522 0.587271,0.289128 0.874563,0.442552 0.287307,0.153423 0.57038,0.312561 0.84916,0.476955 0.27884,0.164408 0.5534,0.334145 0.823757,0.508575 0.270313,0.174415 0.536318,0.353597 0.798118,0.537057 0.2618,0.183475 0.519471,0.371125 0.772759,0.562668 0.253274,0.191543 0.502299,0.38695 0.747075,0.585598 0.244718,0.198634 0.48523,0.400495 0.721421,0.605272 0.236205,0.204777 0.468206,0.412382 0.695855,0.622311 0.455327,0.419872 0.893541,0.849086 1.314568,1.283762 0.421042,0.434691 0.824823,0.874918 1.211477,1.316656 0.386712,0.441737 0.756149,0.885014 1.108326,1.326041 0.352176,0.441026 0.687135,0.879715 1.004745,1.312259 0.31761,0.432544 0.617914,0.858916 0.900854,1.275191 0.28294,0.41629 0.548441,0.822469 0.796637,1.214733 0.248196,0.392265 0.479028,0.770643 0.692376,1.131123 0.213334,0.360467 0.409185,0.703168 0.587538,1.024079 0.178411,0.320941 0.339311,0.62009 0.482639,0.89369 -0.143742,0.273983 -0.304968,0.573444 -0.483646,0.894606 -0.178694,0.321148 -0.374855,0.663983 -0.588382,1.024553 -0.213585,0.36057 -0.444505,0.738977 -0.692834,1.131227 -0.248329,0.392249 -0.513979,0.798325 -0.796963,1.214497 -0.283044,0.416186 -0.583392,0.842483 -0.900988,1.274849 -0.317609,0.432368 -0.65248,0.870878 -1.004656,1.311682 -0.352131,0.440805 -0.721583,0.883831 -1.108193,1.325346 -0.386564,0.441501 -0.790286,0.881402 -1.211239,1.315842 -0.420939,0.434454 -0.859019,0.863415 -1.314213,1.283066 -0.227634,0.209825 -0.459487,0.4174 -0.695648,0.622074 -0.236161,0.204673 -0.476629,0.406505 -0.721302,0.605064 -0.244717,0.198546 -0.493742,0.393774 -0.746927,0.585244 -0.253229,0.191468 -0.510677,0.379118 -0.772433,0.562533 -0.261756,0.183417 -0.527761,0.362569 -0.798029,0.536954 -0.270209,0.174386 -0.544741,0.344064 -0.823476,0.508458 -0.278736,0.164393 -0.56172,0.323515 -0.848968,0.476954 -0.287248,0.153424 -0.578759,0.301163 -0.874474,0.44267 -0.295715,0.141522 -0.595739,0.276767 -0.899892,0.40538 -0.304227,0.128643 -0.612541,0.25055 -0.925191,0.365292 -0.312651,0.114728 -0.629565,0.222305 -0.950698,0.322214 -0.321074,0.09992 -0.646366,0.19212 -0.975863,0.276234 -0.329557,0.08408 -0.663214,0.160144 -1.001193,0.227471 -0.33792,0.06736 -0.68006,0.125978 -1.026403,0.175584 -0.484994,0.06661 -0.971704,0.118577 -1.456653,0.153824 -0.485008,0.03524 -0.968195,0.05388 -1.446157,0.05388 -0.311273,0 -0.620682,-0.0074 -0.928107,-0.02235 -0.307425,-0.0148 -0.612911,-0.03686 -0.916132,-0.06617 -0.30322,-0.02931 -0.604205,-0.06558 -0.902837,-0.108807 -0.298632,-0.04337 -0.59491,-0.0937 -0.888597,-0.150684 -0.293687,-0.057 -0.584813,-0.120797 -0.873171,-0.191218 -0.288314,-0.07045 -0.57386,-0.147276 -0.856474,-0.230709 -0.282629,-0.08334 -0.562283,-0.173157 -0.838797,-0.269158 -0.276516,-0.09607 -0.549878,-0.198294 -0.819864,-0.306581 -0.270046,-0.108171 -0.536747,-0.222588 -0.799879,-0.342792 -0.263133,-0.120205 -0.522758,-0.246286 -0.778681,-0.378038 -0.255923,-0.131752 -0.508043,-0.269262 -0.756328,-0.412205 -0.24824,-0.143001 -0.492632,-0.291318 -0.732907,-0.445112 -0.240233,-0.153779 -0.476393,-0.312932 -0.708246,-0.477177 -0.231853,-0.16426 -0.459546,-0.333642 -0.68265,-0.507998 -0.223104,-0.174356 -0.44159,-0.353641 -0.65553,-0.537754 -0.213941,-0.184111 -0.423262,-0.373107 -0.62767,-0.566604 -0.204378,-0.193497 -0.403929,-0.39151 -0.598433,-0.594051 -0.194503,-0.202512 -0.38393,-0.409481 -0.568114,-0.620683 -0.184186,-0.211187 -0.363102,-0.426667 -0.5366,-0.646159 -0.173497,-0.219507 -0.341576,-0.443055 -0.50406,-0.670496 -0.162439,-0.227442 -0.319312,-0.458747 -0.470323,-0.693768 -0.15101,-0.235036 -0.296189,-0.473758 -0.435386,-0.716017 -0.139153,-0.242245 -0.272355,-0.487969 -0.39934,-0.737083 -0.127014,-0.249114 -0.247767,-0.501633 -0.362169,-0.757245 -0.114431,-0.255613 -0.222423,-0.514364 -0.323857,-0.77612 -0.101404,-0.261755 -0.196264,-0.526531 -0.284331,-0.794061 -0.08808,-0.267544 -0.169427,-0.537797 -0.243799,-0.81076 -0.07432,-0.272947 -0.141818,-0.548589 -0.20201,-0.826614 -0.06025,-0.27801 -0.113246,-0.558375 -0.159004,-0.841093 -0.04574,-0.282702 -0.08424,-0.567715 -0.115171,-0.854755 -0.03093,-0.287056 -0.05418,-0.576257 -0.06988,-0.86728 -0.01569,-0.291022 -0.02369,-0.583852 -0.02369,-0.878501 0,-0.294709 0.0074,-0.587775 0.02369,-0.878856 0.01569,-0.291082 0.03893,-0.580165 0.07002,-0.867265 0.03093,-0.2871 0.06928,-0.572126 0.115023,-0.854875 0.04589,-0.282762 0.09903,-0.563288 0.159242,-0.841329 0.06025,-0.278054 0.127754,-0.553636 0.202097,-0.826629 0.07446,-0.272977 0.155675,-0.543304 0.243844,-0.810863 0.08808,-0.26756 0.183076,-0.53229 0.284569,-0.794062 0.101404,-0.261771 0.209499,-0.52061 0.323945,-0.776237 0.114432,-0.255628 0.235318,-0.508131 0.362405,-0.757246 0.127014,-0.249114 0.260172,-0.494838 0.399474,-0.737082 0.139301,-0.242245 0.284523,-0.480982 0.435564,-0.716018 0.1511,-0.23502 0.308077,-0.466325 0.470604,-0.693767 0.162528,-0.227426 0.330667,-0.45099 0.504298,-0.670481 0.173586,-0.219492 0.352649,-0.434869 0.536923,-0.646057 0.18432,-0.211187 0.373835,-0.418169 0.568486,-0.620681 0.194592,-0.202513 0.394248,-0.40057 0.598788,-0.594052 0.204511,-0.193482 0.413921,-0.38239 0.627951,-0.566486 0.214089,-0.184097 0.432885,-0.363309 0.656137,-0.537635 0.223252,-0.174356 0.450886,-0.343768 0.682887,-0.507998 0.232031,-0.164231 0.468428,-0.323309 0.708837,-0.477073 0.240425,-0.153751 0.484949,-0.302171 0.733382,-0.445098 0.248418,-0.143003 0.500818,-0.28035 0.756875,-0.412086 0.256101,-0.131752 0.515918,-0.257863 0.779243,-0.378053 0.26337,-0.120205 0.530114,-0.234444 0.800338,-0.342717 0.270209,-0.108213 0.543897,-0.21058 0.820604,-0.306581 0.276693,-0.09593 0.556539,-0.185681 0.839346,-0.269039 0.282851,-0.08334 0.568619,-0.160352 0.857213,-0.230728 0.288551,-0.07032 0.579914,-0.13412 0.873868,-0.191217 0.293924,-0.057 0.590379,-0.107326 0.889248,-0.150567 0.298913,-0.04337 0.60018,-0.07964 0.903667,-0.108806 0.303457,-0.02931 0.609253,-0.05137 0.91696,-0.06617 0.307661,-0.0148 0.617352,-0.0222 0.928862,-0.0222 z m 53.033856,8.920682 v 5.588378 h -5.57789 v 5.311345 h 5.57789 v 5.587444 h 5.32927 v -5.587444 h 5.58029 V 78.32495 h -5.58029 v -5.588378 z m -60.525539,5.520045 v 5.311344 h 16.482905 v -5.311344 z"
     id="path1746"
     inkscape:connector-curvature="0" />
</svg>
